<svg width="51" height="50" viewBox="0 0 51 50" fill="none" xmlns="http://www.w3.org/2000/svg">
<path d="M50.054 25C50.054 38.799 38.853 50 25.054 50 11.255 50 0 38.799 0 25 0 11.201 11.201 0 25 0 38.799 0 50.054 11.201 50.054 25z" fill="#F99E36"/>
<path d="M34.848 11.905c-1.894-2.11-3.788-2.922-5.357-2.381-.325.108-.596.27-.812.487l-4.6 3.842L12.12 23.918l-2.597 2.164c-.866.704-1.19 1.948-.812 2.976l.487 1.407.487 1.407c.379 1.082 1.407 1.786 2.543 1.786h25c.325 0 .974-.162.974-.162 1.569-.595 2.489-2.435 2.597-5.249.108-2.543-.487-5.627-1.623-8.658-1.082-3.084-2.651-5.79-4.329-7.684zm-.757 12.392l-1.84-4.978c1.353-.487 2.922.216 3.409 1.569.541 1.407-.216 2.922-1.569 3.409zm-4.816-13.582c-.054.054-.054.054-.108.108-1.894 1.569-1.84 6.818.162 12.392 1.461 3.95 3.518 7.088 5.52 8.603H12.283c-.325 0-.65-.216-.758-.541l-.487-1.407 16.829-6.115c-2.164-5.79-1.461-11.417 1.407-13.041z" fill="white"/>
<path d="M30.032 33.496c-.162 2.597-2.327 4.437-4.978 4.491h-.054c-2.651 0-4.87-1.84-5.032-4.491h1.894c.216 1.569 1.515 2.651 3.138 2.651h.054c1.569 0 2.868-.864 3.084-2.651" fill="white"/>
</svg>
