<svg width="20" height="21" viewBox="0 0 20 21" fill="none" xmlns="http://www.w3.org/2000/svg">
<g clip-path="url(#clip0_50_2530)">
<path fill-rule="evenodd" clip-rule="evenodd" d="M9.99689 0.500122C15.5142 0.500122 19.9936 4.97949 19.9936 10.4968C19.9936 16.0142 15.5142 20.4935 9.99689 20.4935C4.47955 20.4935 0.000183105 16.0142 0.000183105 10.4968C0.000183105 4.97949 4.47955 0.500122 9.99689 0.500122ZM15.2574 8.04085C15.2574 7.87063 15.1896 7.70138 15.067 7.57983L14.1439 6.65678C14.0224 6.53421 13.8521 6.46632 13.6829 6.46632C13.5127 6.46632 13.3435 6.53421 13.2209 6.65678L8.76788 11.1139L6.77287 9.11281C6.65026 8.9902 6.48106 8.9223 6.31084 8.9223C6.14164 8.9223 5.97142 8.9902 5.84987 9.11281L4.92682 10.0358C4.8042 10.1574 4.73636 10.3276 4.73636 10.4968C4.73636 10.666 4.8042 10.8362 4.92682 10.9578L8.30687 14.3369C8.42846 14.4595 8.59868 14.5273 8.76788 14.5273C8.9381 14.5273 9.1073 14.4595 9.22992 14.3369L15.067 8.50182C15.1896 8.38027 15.2574 8.21005 15.2574 8.04085Z" fill="#5AA152"/>
</g>
<defs>
<clipPath id="clip0_50_2530">
<rect width="20" height="20" fill="white" transform="translate(0 0.5)"/>
</clipPath>
</defs>
</svg>
