<svg width="36" height="36" viewBox="0 0 36 36" fill="none" xmlns="http://www.w3.org/2000/svg">
<path d="M0.666748 35.3333L3.91675 24.1667C3.38897 23.0278 2.99314 21.8611 2.72925 20.6667C2.46536 19.4722 2.33341 18.25 2.33341 17C2.33341 14.6945 2.77091 12.5278 3.64591 10.5C4.52091 8.47223 5.70841 6.70834 7.20841 5.20834C8.70841 3.70834 10.4723 2.52084 12.5001 1.64584C14.5279 0.770843 16.6945 0.333344 19.0001 0.333344C21.3056 0.333344 23.4723 0.770843 25.5001 1.64584C27.5279 2.52084 29.2917 3.70834 30.7917 5.20834C32.2917 6.70834 33.4792 8.47223 34.3542 10.5C35.2292 12.5278 35.6667 14.6945 35.6667 17C35.6667 19.3056 35.2292 21.4722 34.3542 23.5C33.4792 25.5278 32.2917 27.2917 30.7917 28.7917C29.2917 30.2917 27.5279 31.4792 25.5001 32.3542C23.4723 33.2292 21.3056 33.6667 19.0001 33.6667C17.7501 33.6667 16.5279 33.5347 15.3334 33.2708C14.139 33.007 12.9723 32.6111 11.8334 32.0833L0.666748 35.3333ZM5.58341 30.4167L10.9167 28.8333C11.3056 28.7222 11.7015 28.6806 12.1042 28.7083C12.507 28.7361 12.889 28.8333 13.2501 29C14.139 29.4445 15.0695 29.7778 16.0417 30C17.014 30.2222 18.0001 30.3333 19.0001 30.3333C22.7223 30.3333 25.8751 29.0417 28.4584 26.4583C31.0417 23.875 32.3334 20.7222 32.3334 17C32.3334 13.2778 31.0417 10.125 28.4584 7.54168C25.8751 4.95834 22.7223 3.66668 19.0001 3.66668C15.2779 3.66668 12.1251 4.95834 9.54175 7.54168C6.95842 10.125 5.66675 13.2778 5.66675 17C5.66675 18 5.77786 18.9861 6.00008 19.9583C6.2223 20.9306 6.55564 21.8611 7.00008 22.75C7.19453 23.1111 7.29869 23.4931 7.31258 23.8958C7.32647 24.2986 7.27786 24.6945 7.16675 25.0833L5.58341 30.4167ZM17.3334 23.6667H20.6667V18.6667H25.6667V15.3333H20.6667V10.3333H17.3334V15.3333H12.3334V18.6667H17.3334V23.6667Z" fill="#191D2D" fill-opacity="0.6"/>
</svg>
