<?xml version="1.0" encoding="UTF-8" standalone="no"?><svg xmlns="http://www.w3.org/2000/svg" xmlns:xlink="http://www.w3.org/1999/xlink" xml:space="preserve" aria-label="Threads" version="1.1" viewBox="0 0 164.73633 188.48273"><defs><radialGradient xlink:href="#a" id="m" cx="199.78836" cy="628.43787" r="52.351524" fx="199.78836" fy="628.43787" gradientTransform="matrix(-2.1827242 .54383346 -.38457328 -1.5951706 855.09911 985.18118)" gradientUnits="userSpaceOnUse"/><radialGradient xlink:href="#b" id="n" cx="158.429" cy="578.08801" r="52.351524" fx="158.429" fy="578.08801" gradientTransform="matrix(.08595428 -2.7011046 2.9768121 .09472783 -1690.2491 573.6465)" gradientUnits="userSpaceOnUse"/><radialGradient xlink:href="#c" id="o" cx="155.67557" cy="585.21564" r="65" fx="155.67557" fy="585.21564" gradientTransform="matrix(.83493846 -.71390789 .78021023 .94011145 -518.47741 -252.01554)" gradientUnits="userSpaceOnUse"/><radialGradient xlink:href="#d" id="s" cx="119.46317" cy="23.811317" r="40.503414" fx="119.46317" fy="23.811317" gradientTransform="matrix(-1.0952716 -.44768525 .29780472 -.72858399 252.98176 96.587917)" gradientUnits="userSpaceOnUse"/><radialGradient xlink:href="#e" id="t" cx="189.59703" cy="42.611847" r="40.503414" fx="189.59703" fy="42.611847" gradientTransform="matrix(-4.6672788 .57637805 -.06382925 -.51687275 964.34622 -92.594027)" gradientUnits="userSpaceOnUse"/><radialGradient xlink:href="#f" id="u" cx="202.25043" cy="22.996674" r="40.503414" fx="202.25043" fy="22.996674" gradientTransform="matrix(-3.0270565 2.5254349 -.43980622 -.5271665 642.22781 -486.37061)" gradientUnits="userSpaceOnUse"/><radialGradient xlink:href="#g" id="v" cx="192.86696" cy="24.92071" r="40.503414" fx="192.86696" fy="24.92071" gradientTransform="matrix(-3.4094181 .87788107 -.20229013 -.78564037 714.4451 -158.96643)" gradientUnits="userSpaceOnUse"/><radialGradient xlink:href="#h" id="w" cx="178.82932" cy="27.026821" r="40.503414" fx="178.82932" fy="27.026821" gradientTransform="matrix(-.66268203 -.40314186 .21893066 -.35987657 219.23285 87.450742)" gradientUnits="userSpaceOnUse"/><radialGradient xlink:href="#i" id="x" cx="141.88438" cy="-38.466335" r="40.503414" fx="141.88438" fy="-38.466335" gradientTransform="matrix(-1.1635665 .69088598 -.33082418 -.55716373 243.86538 -66.967025)" gradientUnits="userSpaceOnUse"/><radialGradient xlink:href="#j" id="p" cx="51.540646" cy="-16.960396" r="74.280515" fx="51.540646" fy="-16.960396" gradientTransform="matrix(.26019306 .57490185 -1.885184 .85322047 -17.165871 5.8563178)" gradientUnits="userSpaceOnUse"/><radialGradient xlink:href="#k" id="q" cx="49.800453" cy="13.85216" r="74.280515" fx="49.800453" fy="13.85216" gradientTransform="matrix(-.33205898 1.3103128 -.73237653 -.18559568 31.074841 -47.325522)" gradientUnits="userSpaceOnUse"/><radialGradient xlink:href="#l" id="r" cx="103.1596" cy="17.587767" r="74.280515" fx="103.1596" fy="17.587767" gradientTransform="matrix(.09584514 .2160243 -.36730947 .16296716 2.1572179 45.301764)" gradientUnits="userSpaceOnUse"/><linearGradient id="j"><stop offset="0" style="stop-color:#ba1de8;stop-opacity:.9471947"/><stop offset=".25" style="stop-color:#be23ed;stop-opacity:.98019803"/><stop offset=".5" style="stop-color:#ba27e8;stop-opacity:.31023106"/><stop offset="1" style="stop-color:#ad13da;stop-opacity:0"/></linearGradient><linearGradient id="l"><stop offset="0" style="stop-color:#fb31fb;stop-opacity:.63696373"/><stop offset="1" style="stop-color:#fe25f5;stop-opacity:.04950496"/></linearGradient><linearGradient id="k"><stop offset="0" style="stop-color:#ba1de8;stop-opacity:.9471947"/><stop offset=".25" style="stop-color:#ba22e8;stop-opacity:.9339934"/><stop offset=".5" style="stop-color:#b50ff1;stop-opacity:.31023106"/><stop offset="1" style="stop-color:#ad13da;stop-opacity:0"/></linearGradient><linearGradient id="i"><stop offset="0" style="stop-color:#ff09c5"/><stop offset=".76533353" style="stop-color:#ff09aa;stop-opacity:.68646866"/><stop offset="1" style="stop-color:#ff00b0;stop-opacity:0"/></linearGradient><linearGradient id="h"><stop offset="0" style="stop-color:#a711fa;stop-opacity:.38943896"/><stop offset=".75" style="stop-color:#a711fa;stop-opacity:.18151815"/><stop offset="1" style="stop-color:#a711fa;stop-opacity:0"/></linearGradient><linearGradient id="f"><stop offset="0" style="stop-color:#9711fa"/><stop offset=".25" style="stop-color:#9e11fa"/><stop offset=".5" style="stop-color:#ab22fa;stop-opacity:.79207921"/><stop offset=".75" style="stop-color:#b73df8;stop-opacity:.38283828"/><stop offset="1" style="stop-color:#ce60fa;stop-opacity:0"/></linearGradient><linearGradient id="g"><stop offset="0" style="stop-color:#9711fa"/><stop offset=".25" style="stop-color:#9e11fa"/><stop offset=".5" style="stop-color:#a511fa;stop-opacity:.79207921"/><stop offset=".75" style="stop-color:#ae11fa;stop-opacity:.29042909"/><stop offset="1" style="stop-color:#b711fa;stop-opacity:0"/></linearGradient><linearGradient id="e"><stop offset="0" style="stop-color:#a711fa"/><stop offset=".75" style="stop-color:#a711fa;stop-opacity:.18151815"/><stop offset="1" style="stop-color:#a711fa;stop-opacity:0"/></linearGradient><linearGradient id="d"><stop offset="0" style="stop-color:#fb00d9"/><stop offset="1" style="stop-color:#fb00d9;stop-opacity:0"/></linearGradient><linearGradient id="a"><stop offset="0" style="stop-color:#ff005f"/><stop offset="1" style="stop-color:#fc01d8"/></linearGradient><linearGradient id="b"><stop offset="0" stop-color="#fd5" style="stop-color:#fc0"/><stop offset=".10502597" stop-color="#fd5" style="stop-color:#fc0"/><stop offset=".3361111" stop-color="#fd5" style="stop-color:#feb102"/><stop offset=".50854748" stop-color="#fd5" style="stop-color:#fe7b05"/><stop offset=".69420278" stop-color="#ff543e" style="stop-color:#ff4949"/><stop offset="1" stop-color="#ff543e" style="stop-color:#fe0657;stop-opacity:0"/></linearGradient><linearGradient id="c"><stop offset="0" style="stop-color:#fc0"/><stop offset="1" style="stop-color:#fc0;stop-opacity:0"/></linearGradient></defs><g transform="translate(0 -1.7203976)"><path d="M128.18843 89.078226c-.82476-.389137-1.66248-.763647-2.51117-1.122254-1.47798-26.806575-16.35852-42.153338-41.344676-42.310406-.113192-.000687-.225785-.000687-.338978-.000687-14.944962 0-27.374464 6.2794-35.024761 17.70593l13.741634 9.278917c5.715059-8.535197 14.68427-10.354738 21.289709-10.354738.076293 0 .152884 0 .22838.000688 8.227028.051637 14.435147 2.40619 18.453212 6.99789 2.92405 3.342907 4.87974 7.962387 5.84811 13.792375-7.29417-1.220324-15.182718-1.595521-23.615787-1.119603-23.755704 1.346959-39.027777 14.984916-38.002065 33.935312.520484 9.61259 5.385456 17.88225 13.698151 23.28442 7.02829 4.56677 16.080275 6.80009 25.487994 6.29452 12.423917-.67048 22.170417-5.33639 28.969917-13.86816 5.16397-6.47907 8.43009-14.87537 9.87216-25.4549 5.9209 3.51735 10.30897 8.14595 12.73238 13.7101 4.12079 9.45847 4.36114 25.00138-8.52282 37.67287-11.2883 11.10081-24.85741 15.90318-45.364149 16.05142-22.747445-.16591-39.951065-7.34689-51.13635-21.34364-10.474119-13.10638-15.8872-32.03705-16.089152-56.266824.201952-24.229966 5.615033-43.160834 16.089152-56.267116 11.185285-13.996563 28.388605-21.177438 51.136051-21.343832 22.912498.167671 40.415908 7.3831 52.029318 21.447204 5.69452 6.896875 9.98785 15.570193 12.81815 25.682946l16.10321-4.229166c-3.43067-12.447674-8.82899-23.173974-16.17502-32.069643-14.88851-18.030788-36.6633-27.2698791-64.719511-27.4614514h-.112295C55.73006 1.9113044 34.199106 11.185537 19.734638 29.28522 6.8632377 45.391704.22379147 67.802718.0006981 95.895192L0 95.961456l.0006981.066263C.22379147 124.11989 6.8632377 146.53161 19.734638 162.63798c14.464468 18.09919 35.995422 27.37409 63.994586 27.56453h.112295c24.892811-.16983 42.439101-6.58508 56.893791-20.80077 18.91158-18.59788 18.34213-41.90978 12.10908-56.22067-4.47184-10.26247-12.99766-18.597694-24.65596-24.102844ZM85.208802 128.85453c-10.411689.57723-21.228376-4.02291-21.761726-13.87602-.395326-7.30565 5.281838-15.457492 22.400688-16.428567 1.960469-.111322 3.884238-.165707 5.774099-.165707 6.218092 0 12.035267.594603 17.323897 1.732664-1.97264 24.2494-13.543177 28.18691-23.736958 28.73763Z" style="fill:url(#m)"/><path d="M128.18843 89.078226c-.82476-.389137-1.66248-.763647-2.51117-1.122254-1.47798-26.806575-16.35852-42.153338-41.344676-42.310406-.113192-.000687-.225785-.000687-.338978-.000687-14.944962 0-27.374464 6.2794-35.024761 17.70593l13.741634 9.278917c5.715059-8.535197 14.68427-10.354738 21.289709-10.354738.076293 0 .152884 0 .22838.000688 8.227028.051637 14.435147 2.40619 18.453212 6.99789 2.92405 3.342907 4.87974 7.962387 5.84811 13.792375-7.29417-1.220324-15.182718-1.595521-23.615787-1.119603-23.755704 1.346959-39.027777 14.984916-38.002065 33.935312.520484 9.61259 5.385456 17.88225 13.698151 23.28442 7.02829 4.56677 16.080275 6.80009 25.487994 6.29452 12.423917-.67048 22.170417-5.33639 28.969917-13.86816 5.16397-6.47907 8.43009-14.87537 9.87216-25.4549 5.9209 3.51735 10.30897 8.14595 12.73238 13.7101 4.12079 9.45847 4.36114 25.00138-8.52282 37.67287-11.2883 11.10081-24.85741 15.90318-45.364149 16.05142-22.747445-.16591-39.951065-7.34689-51.13635-21.34364-10.474119-13.10638-15.8872-32.03705-16.089152-56.266824.201952-24.229966 5.615033-43.160834 16.089152-56.267116 11.185285-13.996563 28.388605-21.177438 51.136051-21.343832 22.912498.167671 40.415908 7.3831 52.029318 21.447204 5.69452 6.896875 9.98785 15.570193 12.81815 25.682946l16.10321-4.229166c-3.43067-12.447674-8.82899-23.173974-16.17502-32.069643-14.88851-18.030788-36.6633-27.2698791-64.719511-27.4614514h-.112295C55.73006 1.9113044 34.199106 11.185537 19.734638 29.28522 6.8632377 45.391704.22379147 67.802718.0006981 95.895192L0 95.961456l.0006981.066263C.22379147 124.11989 6.8632377 146.53161 19.734638 162.63798c14.464468 18.09919 35.995422 27.37409 63.994586 27.56453h.112295c24.892811-.16983 42.439101-6.58508 56.893791-20.80077 18.91158-18.59788 18.34213-41.90978 12.10908-56.22067-4.47184-10.26247-12.99766-18.597694-24.65596-24.102844ZM85.208802 128.85453c-10.411689.57723-21.228376-4.02291-21.761726-13.87602-.395326-7.30565 5.281838-15.457492 22.400688-16.428567 1.960469-.111322 3.884238-.165707 5.774099-.165707 6.218092 0 12.035267.594603 17.323897 1.732664-1.97264 24.2494-13.543177 28.18691-23.736958 28.73763Z" style="opacity:.885645;fill:url(#n)"/><path d="M83.728516 1.7207031C55.72938 1.9116097 34.198829 11.185491 19.734375 29.285156 6.8629876 45.391624.22309315 67.802085 0 95.894531v.132813c.22309315 28.092146 6.8629876 50.504976 19.734375 66.611326 14.464454 18.09917 35.995005 27.37402 63.994141 27.56445h.113281c24.892783-.16982 42.437903-6.5851 56.892583-20.80078 18.91156-18.59786 18.34241-41.90982 12.10937-56.2207-4.47184-10.26246-12.99796-18.598371-24.65625-24.103515-.82476-.389137-1.66108-.76444-2.50977-1.123047-1.47797-26.806548-16.35957-42.151526-41.345699-42.308594-.113192-.000687-.224697-.001953-.33789-.001953-14.944947 0-27.375102 6.280513-35.025391 17.707031l13.742188 9.277344C68.425991 64.093718 77.394568 62.275391 84 62.275391c.076293 0 .15302-.000688.228516 0 8.227019.051637 14.435064 2.406351 18.453124 6.998047 2.92405 3.342903 4.87929 7.962986 5.84766 13.792968-7.29417-1.220323-15.182177-1.595058-23.615238-1.11914-17.9953 1.020341-31.122401 9.092653-35.984673 21.184924l15.658377 5.843c2.411824-5.21436 8.809941-9.71818 21.25989-10.424409 1.960467-.111322 3.883579-.166015 5.773438-.166015 6.218086 0 12.035596.594362 17.324216 1.732424-.84125 10.34139-3.42795 16.98883-6.90899 21.25489l13.03204 10.21972c5.16396-6.47907 8.42902-14.87556 9.87109-25.45508 5.9209 3.51735 10.30902 8.14679 12.73243 13.71094 4.12078 9.45846 4.36246 25.00039-8.52149 37.67187-11.28829 11.1008-24.85852 15.9045-45.365234 16.05274-22.747422-.16591-39.951445-7.34702-51.136718-21.34375-10.474109-13.10637-15.885939-32.03783-16.087891-56.267582.201952-24.229942 5.613782-43.159357 16.087891-56.265626 11.185273-13.996549 28.389295-21.179309 51.136718-21.345703 22.912474.167671 40.415894 7.383176 52.029294 21.447266 5.69452 6.896868 9.98807 15.570851 12.81836 25.683594l16.10352-4.228516c-3.43067-12.447661-8.82976-23.174652-16.17578-32.070312-14.8885-18.03077-36.66257-27.2693658-64.718753-27.4609379Z" style="fill:url(#o)"/><path d="M16.560169 95.961456c.201952-24.229966 5.615033-43.160834 16.089152-56.267116 11.185285-13.996563 28.388605-21.177438 51.136051-21.343832 22.912498.167671 40.415908 7.3831 52.029318 21.447204l12.74634-10.615863c-14.88851-18.030788-36.6633-27.2698791-64.719511-27.4614514h-.112295C55.73006 1.9113044 34.199106 11.185537 19.734638 29.28522 6.8632377 45.391704.22379147 67.802718.0006981 95.895192L0 95.961456l.0006981.066263Z" style="fill:url(#p)"/><path d="M16.560169 95.961456c.201952-24.229966 5.615033-43.160834 16.089152-56.267116 11.185285-13.996563 28.388605-21.177438 51.136051-21.343832 22.912498.167671 40.415908 7.3831 52.029318 21.447204l12.74634-10.615863c-14.88851-18.030788-36.6633-27.2698791-64.719511-27.4614514h-.112295C55.73006 1.9113044 34.199106 11.185537 19.734638 29.28522 6.8632377 45.391704.22379147 67.802718.0006981 95.895192L0 95.961456l.0006981.066263Z" style="fill:url(#q)"/><path d="M16.560169 95.961456c.201952-24.229966 5.615033-43.160834 16.089152-56.267116 11.185285-13.996563 28.388605-21.177438 51.136051-21.343832 22.912498.167671 40.415908 7.3831 52.029318 21.447204l12.74634-10.615863c-14.88851-18.030788-36.6633-27.2698791-64.719511-27.4614514h-.112295C55.73006 1.9113044 34.199106 11.185537 19.734638 29.28522 6.8632377 45.391704.22379147 67.802718.0006981 95.895192L0 95.961456l.0006981.066263Z" style="fill:url(#r)"/><path d="M83.785372 18.350508c22.912498.167671 40.415908 7.3831 52.029318 21.447204 5.69452 6.896875 9.98785 15.570193 12.81815 25.682946l16.10321-4.229166c-3.43067-12.447674-8.82899-23.173974-16.17502-32.069643-14.88851-18.030788-36.6633-27.2698791-64.719511-27.4614514h-.112295Z" style="fill:url(#s)"/><path d="M32.649321 39.69434c11.185285-13.996563 28.388605-21.177438 51.136051-21.343832 22.912498.167671 40.415908 7.3831 52.029318 21.447204l12.74634-10.615863c-14.88851-18.030788-36.6633-27.2698791-64.719511-27.4614514h-.112295C55.73006 1.9113044 34.199106 11.185537 19.734638 29.28522Z" style="fill:url(#t)"/><path d="M16.560169 95.961456c.201952-24.229966 5.615033-43.160834 16.089152-56.267116 11.185285-13.996563 28.388605-21.177438 51.136051-21.343832l.056147-16.6301104h-.112295C55.73006 1.9113044 34.199106 11.185537 19.734638 29.28522 6.8632377 45.391704.22379147 67.802718.0006981 95.895192L0 95.961456l.0006981.066263Z" style="fill:url(#u)"/><path d="M16.560169 95.961456c.201952-24.229966 5.615033-43.160834 16.089152-56.267116 11.185285-13.996563 28.388605-21.177438 51.136051-21.343832 13.878538-3.009725 33.509428-4.446541 25.532168-13.43246-8.38708-2.2550683-16.902475-3.055885-25.476021-3.1976504h-.112295C55.73006 1.9113044 34.199106 11.185537 19.734638 29.28522 6.8632377 45.391704.22379147 67.802718.0006981 95.895192L0 95.961456l.0006981.066263Z" style="fill:url(#v)"/><path d="M32.649321 39.69434c11.185285-13.996563 28.388605-21.177438 51.136051-21.343832 22.912498.167671 40.415908 7.3831 52.029318 21.447204l12.74634-10.615863c-14.88851-18.030788-36.6633-27.2698791-64.719511-27.4614514h-.112295C55.73006 1.9113044 34.199106 11.185537 19.734638 29.28522Z" style="opacity:.644769;fill:url(#w)"/><path d="M125.67726 87.955972c-1.47798-26.806575-16.35852-42.153338-41.344676-42.310406-.113192-.000687-.225785-.000687-.338978-.000687-14.944962 0-27.374464 6.2794-35.024761 17.70593l13.741634 9.278917c5.715059-8.535197 14.68427-10.354738 21.289709-10.354738.076293 0 .152884 0 .22838.000688 8.227028.051637 14.435147 2.40619 18.453212 6.99789 2.92405 3.342907 4.87974 7.962387 5.84811 13.792375Z" style="fill:url(#x)"/></g></svg>