<svg width="36" height="29" viewBox="0 0 36 29" fill="none" xmlns="http://www.w3.org/2000/svg">
<path d="M31.0801 27.4852C26.3874 26.9881 20.9201 27.0785 15.0884 27.4852C14.1317 27.5756 13.1293 27.2593 12.4004 26.6266L1.32924 17.4076C0.828075 17.0009 0.919196 16.1875 1.46592 15.9163C1.46592 15.9163 1.51148 15.9163 1.51148 15.8711C3.51613 14.8769 5.93082 15.2384 7.66211 16.6394L13.4938 21.1133" stroke="#594d4d" stroke-width="2" stroke-miterlimit="10" stroke-linecap="round"/>
<path d="M22.788 21.1583L15.225 21.7909C14.0405 21.8813 13.0381 21.0227 12.947 19.8929C12.8559 18.7179 13.7215 17.7237 14.8605 17.6334L20.2822 17.1814C21.4212 17.0911 22.5602 16.7295 23.6081 16.1872C26.934 14.5152 31.6267 16.4132 34.8615 19.1247" stroke="#594d4d" stroke-width="2" stroke-miterlimit="10" stroke-linecap="round"/>
<path d="M14.3594 10.2219C14.3594 11.3516 15.4528 12.2554 16.8196 12.2554C18.1864 12.2554 19.2799 11.3516 19.2799 10.2219C19.2799 7.73634 14.4049 7.42001 14.4049 4.88931C14.4049 3.75953 15.4984 2.85571 16.8652 2.85571C18.232 2.85571 19.3254 3.75953 19.3254 4.88931" stroke="#594d4d" stroke-width="2" stroke-miterlimit="10" stroke-linecap="round"/>
<path d="M16.8196 12.2559V13.6116" stroke="#594d4d" stroke-width="2" stroke-miterlimit="10" stroke-linecap="round"/>
<path d="M16.8196 1.5V2.90092" stroke="#594d4d" stroke-width="2" stroke-miterlimit="10" stroke-linecap="round"/>
</svg>
