<svg width="22" height="20" viewBox="0 0 22 20" fill="none" xmlns="http://www.w3.org/2000/svg">
<path d="M11 20C10.2 19.3667 9.33333 18.875 8.4 18.525C7.46667 18.175 6.5 18 5.5 18C4.8 18 4.11267 18.0917 3.438 18.275C2.76267 18.4583 2.11667 18.7167 1.5 19.05C1.15 19.2333 0.812667 19.225 0.488 19.025C0.162667 18.825 0 18.5333 0 18.15V6.1C0 5.91667 0.046 5.74167 0.138 5.575C0.229333 5.40833 0.366667 5.28333 0.55 5.2C1.31667 4.8 2.11667 4.5 2.95 4.3C3.78333 4.1 4.63333 4 5.5 4C6.46667 4 7.41267 4.125 8.338 4.375C9.26267 4.625 10.15 5 11 5.5V17.6C11.85 17.0667 12.7417 16.6667 13.675 16.4C14.6083 16.1333 15.55 16 16.5 16C17.1 16 17.6877 16.05 18.263 16.15C18.8377 16.25 19.4167 16.4 20 16.6V4.6C20.25 4.68333 20.496 4.77067 20.738 4.862C20.9793 4.954 21.2167 5.06667 21.45 5.2C21.6333 5.28333 21.771 5.40833 21.863 5.575C21.9543 5.74167 22 5.91667 22 6.1V18.15C22 18.5333 21.8377 18.825 21.513 19.025C21.1877 19.225 20.85 19.2333 20.5 19.05C19.8833 18.7167 19.2373 18.4583 18.562 18.275C17.8873 18.0917 17.2 18 16.5 18C15.5 18 14.5333 18.175 13.6 18.525C12.6667 18.875 11.8 19.3667 11 20ZM13 15V5.5L18 0.5V10.5L13 15ZM9 16.625V6.725C8.45 6.49167 7.87933 6.31267 7.288 6.188C6.696 6.06267 6.1 6 5.5 6C4.88333 6 4.28333 6.05833 3.7 6.175C3.11667 6.29167 2.55 6.46667 2 6.7V16.625C2.58333 16.4083 3.16267 16.25 3.738 16.15C4.31267 16.05 4.9 16 5.5 16C6.1 16 6.68733 16.05 7.262 16.15C7.83733 16.25 8.41667 16.4083 9 16.625Z" fill="#5AA152"/>
</svg>
