<svg width="24" height="24" viewBox="0 0 24 24" fill="none" xmlns="http://www.w3.org/2000/svg">
<rect width="24" height="24" fill="white" fill-opacity="0.01"/>
<path fill-rule="evenodd" clip-rule="evenodd" d="M14.995 10.995C15.1825 11.1825 15.2878 11.4368 15.2878 11.702C15.2878 11.9672 15.1825 12.2215 14.995 12.409L10.402 17.002C10.2157 17.1846 9.96488 17.2862 9.70406 17.2849C9.44323 17.2836 9.19346 17.1794 9.00902 16.995C8.82458 16.8105 8.72039 16.5608 8.71907 16.2999C8.71775 16.0391 8.81942 15.7883 9.00198 15.602L12.902 11.702L9.00198 7.80201C8.81942 7.61572 8.71775 7.36491 8.71907 7.10408C8.72039 6.84325 8.82458 6.59348 9.00902 6.40904C9.19346 6.22461 9.44323 6.12041 9.70406 6.11909C9.96488 6.11777 10.2157 6.21944 10.402 6.40201L14.995 10.995Z" fill="#191D2D" fill-opacity="0.6"/>
</svg>
