<svg width="14" height="11" viewBox="0 0 14 11" fill="none" xmlns="http://www.w3.org/2000/svg">
<path d="M13 9.75C13 9.88281 12.8828 10 12.75 10H1.25C1.11719 10 1 9.88281 1 9.75V3.75C1.16406 3.9375 1.34375 4.10937 1.53906 4.26562C2.65625 5.125 3.78125 6 4.86719 6.90625C5.45313 7.39844 6.17969 8 6.99219 8H7H7.00781C7.82031 8 8.54688 7.39844 9.13281 6.90625C10.2188 6 11.3438 5.125 12.4609 4.26562C12.6563 4.10937 12.8359 3.9375 13 3.75V9.75ZM13 1.53906C13 2.20312 12.3594 3.07031 11.8516 3.46875C10.8047 4.28906 9.75781 5.11719 8.71875 5.94531C8.30469 6.28125 7.55469 7 7.00781 7H7H6.99219C6.44531 7 5.69531 6.28125 5.28125 5.94531C4.24219 5.11719 3.19531 4.28906 2.14844 3.46875C1.44531 2.91406 1 2.14062 1 1.25C1 1.11719 1.11719 0.999999 1.25 0.999999H12.75C13.0469 0.999999 13 1.34375 13 1.53906ZM14 1.25C14 0.562499 13.4375 -2.38419e-07 12.75 -2.38419e-07H1.25C0.5625 -2.38419e-07 0 0.562499 0 1.25V9.75C0 10.4375 0.5625 11 1.25 11H12.75C13.4375 11 14 10.4375 14 9.75V1.25Z" fill="#191D2D" fill-opacity="0.65"/>
</svg>
