<svg width="14" height="9" viewBox="0 0 14 9" fill="none" xmlns="http://www.w3.org/2000/svg">
<path d="M13 4.5C11.6641 6.5625 9.50781 8 7 8C4.49219 8 2.33594 6.5625 1 4.5C1.74219 3.35156 2.75781 2.36719 3.97656 1.74219C3.66406 2.27344 3.5 2.88281 3.5 3.5C3.5 5.42969 5.07031 7 7 7C8.92969 7 10.5 5.42969 10.5 3.5C10.5 2.88281 10.3359 2.27344 10.0234 1.74219C11.2422 2.36719 12.2578 3.35156 13 4.5ZM7.375 1.5C7.375 1.70312 7.20313 1.875 7 1.875C6.10938 1.875 5.375 2.60937 5.375 3.5C5.375 3.70312 5.20313 3.875 5 3.875C4.79688 3.875 4.625 3.70312 4.625 3.5C4.625 2.19531 5.69531 1.125 7 1.125C7.20313 1.125 7.375 1.29687 7.375 1.5ZM14 4.5C14 4.30469 13.9375 4.125 13.8438 3.96094C12.4063 1.60156 9.77344 -7.15256e-07 7 -7.15256e-07C4.22656 -7.15256e-07 1.59375 1.60156 0.15625 3.96094C0.0625 4.125 0 4.30469 0 4.5C0 4.69531 0.0625 4.875 0.15625 5.03906C1.59375 7.39844 4.22656 9 7 9C9.77344 9 12.4063 7.40625 13.8438 5.03906C13.9375 4.875 14 4.69531 14 4.5Z" fill="#191D2D" fill-opacity="0.65"/>
</svg>
