<svg width="10" height="10" viewBox="0 0 10 10" fill="none" xmlns="http://www.w3.org/2000/svg">
<path d="M4.41663 9.66658C4.25135 9.66658 4.11281 9.61068 4.00101 9.49888C3.8892 9.38707 3.8333 9.24853 3.8333 9.08325V5.58325L0.449966 1.26659C0.304132 1.07214 0.282257 0.867974 0.384341 0.654085C0.486424 0.440196 0.663854 0.333252 0.916632 0.333252H9.0833C9.33608 0.333252 9.51351 0.440196 9.61559 0.654085C9.71767 0.867974 9.6958 1.07214 9.54997 1.26659L6.16663 5.58325V9.08325C6.16663 9.24853 6.11073 9.38707 5.99892 9.49888C5.88712 9.61068 5.74858 9.66658 5.5833 9.66658H4.41663ZM4.99997 5.17492L7.88747 1.49992H2.11247L4.99997 5.17492Z" fill="#2B66D1"/>
</svg>
