<?xml version="1.0" encoding="utf-8"?>
<!-- Generator: Adobe Illustrator 15.0.0, SVG Export Plug-In . SVG Version: 6.00 Build 0)  -->
<!DOCTYPE svg PUBLIC "-//W3C//DTD SVG 1.1//EN" "http://www.w3.org/Graphics/SVG/1.1/DTD/svg11.dtd">
<svg version="1.1" id="Layer_1" xmlns="http://www.w3.org/2000/svg" xmlns:xlink="http://www.w3.org/1999/xlink" x="0px" y="0px"
	 width="256px" height="256px" viewBox="0 0 256 256" enable-background="new 0 0 256 256" xml:space="preserve">
<path fill="#7CC048" d="M87.59,183.342c42.421,33.075,82.686,19.086,101.079,17.141l33.107,32.912H234l-38.011-37.781
	C195.696,172.965,247.988,26.3,23,26.3C47.504,110.786,45.163,150.291,87.59,183.342 M128.476,120.607
	c10.723,19.952,29.62,50.381,42.937,60.168c13.302,9.789,27.772,16.947-2.893,4.004c-30.661-12.982-53.056-49.711-67.895-77.54
	C89.211,85.849,79.382,66.336,58.097,51.891c-21.284-14.479,2.477-4.298,2.477-4.298C99.474,66.582,113.577,92.81,128.476,120.607"
	/>
</svg>
