<svg width="120" height="151" viewBox="0 0 120 151" fill="none" xmlns="http://www.w3.org/2000/svg">
<g clip-path="url(#clip0_1_307)">
<path fill-rule="evenodd" clip-rule="evenodd" d="M41.6483 20.9216C31.8112 26.0315 24.4588 35.2635 21.8796 46.3291C8.88976 57.1055 0.616882 73.37 0.616882 91.5668C0.616882 124.014 26.9201 150.317 59.3669 150.317C91.8136 150.317 118.117 124.014 118.117 91.5668C118.117 73.37 109.844 57.1055 96.8542 46.3291C93.9654 33.9353 85.0887 23.8416 73.4397 19.2637C73.044 16.2044 71.0069 13.6598 68.2405 12.5419C67.9637 6.40289 62.8989 1.51074 56.6916 1.51074C51.9601 1.51074 47.8924 4.3532 46.1031 8.42367C44.4245 11.6793 42.9396 15.8452 41.6483 20.9216Z" fill="#395360"/>
<path d="M75 65.5635H45V100.563H75V65.5635Z" fill="#FBAA6F"/>
<path fill-rule="evenodd" clip-rule="evenodd" d="M64.6807 83.5197C64.5736 83.4578 64.4687 83.3898 64.3664 83.3155C62.7797 82.1627 62.428 79.9419 63.5808 78.3552C64.7336 76.7686 66.9544 76.4168 68.541 77.5696C68.5725 77.5925 68.6035 77.6157 68.6339 77.6394C67.5613 77.7811 66.4045 78.4964 65.5657 79.651C64.6379 80.9279 64.3414 82.4087 64.6807 83.5197ZM53.4813 83.5197C53.8206 82.4087 53.5241 80.9279 52.5964 79.651C51.7575 78.4964 50.6007 77.7811 49.5281 77.6394C49.5586 77.6157 49.5895 77.5925 49.621 77.5696C51.2077 76.4168 53.4285 76.7686 54.5812 78.3552C55.734 79.9419 55.3823 82.1627 53.7956 83.3155C53.6933 83.3898 53.5884 83.4578 53.4813 83.5197ZM71.5178 75.5635H72.8571L70.1786 87.6171L64.8214 103.688H54.1071L46.0714 90.2956L48.75 82.2599C51.4286 85.8313 53.2143 88.0635 54.1071 88.9563C55.4464 90.2956 60.8036 90.2956 63.4821 87.6171C65.2678 85.8313 67.9464 81.8135 71.5178 75.5635Z" fill="#DC7F3C"/>
<path fill-rule="evenodd" clip-rule="evenodd" d="M24.3431 73.0634H37.5V50.5634H27.3446C28.9606 39.2865 36.2627 30.0462 46.1078 25.5943C47.9997 17.1612 50.2589 11.5298 52.8854 8.70036C53.0237 8.54464 53.1706 8.39618 53.3254 8.25577C53.4143 8.17179 53.5037 8.09092 53.5934 8.01317L53.6011 8.02098C54.3601 7.41435 55.2822 6.99048 56.3105 6.82761C59.4735 6.32664 62.4436 8.48461 62.9446 11.6476C63.216 13.361 62.7071 15.0178 61.6809 16.2562L61.697 16.2726C61.6507 16.3146 61.6046 16.3568 61.5586 16.399C61.3272 16.6606 61.0718 16.9019 60.7953 17.119C59.5615 18.3148 58.4211 19.5791 57.3743 20.9118C60.4111 18.3623 62.9067 17.1102 64.8614 17.1556C65.4133 17.1557 65.9735 17.2882 66.4901 17.5746C68.0791 18.4554 68.6532 20.4575 67.7724 22.0465C67.4193 22.6836 66.8858 23.1576 66.2709 23.44C79.4285 26.2549 89.7865 37.0707 91.628 50.8824L91.9188 53.0634H82.5V73.0634H94.5855L99.0613 106.632C88.4924 113.189 75.2843 116.468 59.4368 116.468C43.6147 116.468 30.4234 113.2 19.8631 106.663L24.3431 73.0634ZM62.1647 96.5443C68.622 85.8836 71.8506 79.5393 71.8506 77.5114C71.8506 71.9311 63.7338 67.3653 59.6753 67.3653C55.6169 67.3653 47.5 71.9079 47.5 77.5114C47.5 79.5407 50.6737 85.8919 57.0211 96.5652C57.6944 97.5068 58.5791 97.9776 59.6753 97.9776C60.7664 97.9776 61.5894 97.5112 62.1443 96.5784C62.1511 96.567 62.1579 96.5557 62.1647 96.5443Z" fill="#BDCFC8"/>
<path fill-rule="evenodd" clip-rule="evenodd" d="M99.5222 122.621C90.4094 134.875 75.8193 142.814 59.375 142.814C42.9781 142.814 28.4247 134.921 19.3067 122.727L21.3961 107.476C22.1895 107.782 23.0516 107.95 23.9529 107.95C27.5309 107.95 30.4909 105.304 30.9833 101.862H31.0552V104.906C31.0552 108.829 34.235 112.008 38.1575 112.008C42.0799 112.008 45.2597 108.829 45.2597 104.906V101.862V108.965C45.2597 112.887 48.4395 116.067 52.362 116.067C56.2845 116.067 59.4643 112.887 59.4643 108.965V101.862V108.965C59.4643 112.887 62.6441 116.067 66.5665 116.067C70.489 116.067 73.6688 112.887 73.6688 108.965V101.862V104.906C73.6688 108.829 76.8486 112.008 80.7711 112.008C84.6936 112.008 87.8734 108.829 87.8734 104.906V101.862H87.9453C88.4376 105.304 91.3976 107.95 94.9756 107.95C95.8622 107.95 96.7108 107.788 97.4933 107.491L99.5222 122.621Z" fill="#809EB0"/>
<path fill-rule="evenodd" clip-rule="evenodd" d="M20.7505 112.189L21.3961 107.476C22.1895 107.782 23.0516 107.95 23.9529 107.95C27.5309 107.95 30.4909 105.304 30.9833 101.862H31.0552V104.906C31.0552 108.829 34.235 112.008 38.1574 112.008C42.0799 112.008 45.2597 108.829 45.2597 104.906V101.862V108.965C45.2597 112.887 48.4395 116.067 52.362 116.067C56.2845 116.067 59.4643 112.887 59.4643 108.965V101.862V108.965C59.4643 112.887 62.6441 116.067 66.5665 116.067C70.489 116.067 73.6688 112.887 73.6688 108.965V101.862V104.906C73.6688 108.829 76.8486 112.008 80.7711 112.008C84.6936 112.008 87.8734 108.829 87.8734 104.906V101.862H87.9453C88.4376 105.304 91.3976 107.95 94.9756 107.95C95.8622 107.95 96.7108 107.788 97.4933 107.491L98.1267 112.214C97.1772 112.685 96.1073 112.95 94.9756 112.95C91.3976 112.95 88.4376 110.304 87.9453 106.862H87.8734V109.906C87.8734 113.829 84.6936 117.008 80.7711 117.008C76.8486 117.008 73.6688 113.829 73.6688 109.906V106.862V113.965C73.6688 117.887 70.489 121.067 66.5665 121.067C62.6441 121.067 59.4643 117.887 59.4643 113.965V106.862V113.965C59.4643 117.887 56.2845 121.067 52.362 121.067C48.4395 121.067 45.2597 117.887 45.2597 113.965V106.862V109.906C45.2597 113.829 42.0799 117.008 38.1574 117.008C34.235 117.008 31.0552 113.829 31.0552 109.906V106.862H30.9833C30.4909 110.304 27.5309 112.95 23.9529 112.95C22.8008 112.95 21.7127 112.676 20.7505 112.189Z" fill="#738E9E"/>
<path fill-rule="evenodd" clip-rule="evenodd" d="M94.45 56.5462C92.0044 49.3702 86.9917 44.8117 82.6397 45.2691C77.149 45.8462 75.8082 54.6543 76.9196 65.2291C78.0311 75.8039 81.1739 84.1408 86.6647 83.5637C91.9882 83.0042 96.6066 73.8335 95.87 63.6377C95.6766 66.7233 94.5853 69.3325 92.3912 69.5244C89.6001 69.7686 88.7935 66.5386 88.4373 62.4664C88.081 58.3943 88.0766 55.0077 90.8677 54.7635C92.3686 54.6322 93.588 55.2831 94.45 56.5462Z" fill="#86A196"/>
<path fill-rule="evenodd" clip-rule="evenodd" d="M92.452 54.9433C90.8757 51.9076 88.6886 50.069 86.4684 50.3023C82.7067 50.6977 81.7882 56.7321 82.5496 63.9768C83.311 71.2215 85.4642 76.9331 89.2258 76.5377C92.0058 76.2455 94.0596 72.7868 94.6349 68.0773C94.0821 68.9069 93.3397 69.4416 92.3912 69.5246C89.6001 69.7688 88.7936 66.5387 88.4373 62.4666C88.081 58.3944 88.0766 55.0078 90.8677 54.7636C91.4378 54.7138 91.9673 54.7767 92.452 54.9433Z" fill="white"/>
<path fill-rule="evenodd" clip-rule="evenodd" d="M23.9976 56.5462C26.4431 49.3702 31.4559 44.8117 35.8078 45.2691C41.2986 45.8462 42.6394 54.6543 41.5279 65.2291C40.4165 75.8039 37.2736 84.1408 31.7829 83.5637C26.4593 83.0042 21.841 73.8335 22.5776 63.6377C22.771 66.7233 23.8622 69.3325 26.0563 69.5244C28.8474 69.7686 29.654 66.5386 30.0103 62.4664C30.3665 58.3943 30.371 55.0077 27.5799 54.7635C26.0789 54.6322 24.8596 55.2831 23.9976 56.5462Z" fill="#86A196"/>
<path fill-rule="evenodd" clip-rule="evenodd" d="M25.933 54.9433C27.5092 51.9076 29.6963 50.069 31.9166 50.3023C35.6782 50.6977 36.5968 56.7321 35.8354 63.9768C35.0739 71.2215 32.9208 76.9331 29.1591 76.5377C26.3792 76.2455 24.3254 72.7868 23.75 68.0773C24.3029 68.9069 25.0452 69.4416 25.9937 69.5246C28.7848 69.7688 29.5914 66.5387 29.9477 62.4666C30.3039 58.3944 30.3084 55.0078 27.5172 54.7636C26.9472 54.7138 26.4177 54.7767 25.933 54.9433Z" fill="white"/>
<path fill-rule="evenodd" clip-rule="evenodd" d="M47.4327 72.1295C47.338 71.5687 47.2889 70.9942 47.2889 70.4092C47.2889 64.2453 50.3328 57.2192 59.4643 57.2192C68.5958 57.2192 71.6396 64.2453 71.6396 70.4092C71.6396 71.2938 71.5273 72.1544 71.3151 72.9796C69.3289 69.6067 65.5704 67.5277 59.314 67.5277C53.6016 67.5277 49.7394 69.2608 47.4327 72.1295Z" fill="#F4F8FF"/>
<path fill-rule="evenodd" clip-rule="evenodd" d="M66.2888 23.4723C61.75 23.255 59.1068 23.1359 58.3591 23.1152L68.1822 20.2058C68.2498 21.5942 67.6187 22.683 66.2888 23.4723ZM57.403 20.9132L54.1071 23.3314C56.3258 20.2163 58.0201 17.1214 59.1901 14.0466C59.8569 12.2942 60.1194 10.088 59.9777 7.42798C62.0295 8.6051 63.0494 10.4735 63.0374 13.0331C63.0332 13.9301 62.3093 15.8409 61.1423 16.8214C60.3643 17.475 59.1178 18.839 57.403 20.9132Z" fill="#86A196"/>
</g>
<defs>
<clipPath id="clip0_1_307">
<rect width="120" height="150" fill="white" transform="translate(0 0.563477)"/>
</clipPath>
</defs>
</svg>
