<svg width="18" height="18" viewBox="0 0 18 18" fill="none" xmlns="http://www.w3.org/2000/svg">
<path d="M8.1662 13.1669H9.83286V8.1669H8.1662V13.1669ZM8.99953 6.50023C9.23564 6.50023 9.4337 6.42023 9.5937 6.26023C9.75314 6.10079 9.83286 5.90301 9.83286 5.6669C9.83286 5.43079 9.75314 5.23273 9.5937 5.07273C9.4337 4.91329 9.23564 4.83357 8.99953 4.83357C8.76342 4.83357 8.56564 4.91329 8.4062 5.07273C8.2462 5.23273 8.1662 5.43079 8.1662 5.6669C8.1662 5.90301 8.2462 6.10079 8.4062 6.26023C8.56564 6.42023 8.76342 6.50023 8.99953 6.50023ZM8.99953 17.3336C7.84675 17.3336 6.76342 17.1147 5.74953 16.6769C4.73564 16.2397 3.8537 15.6461 3.1037 14.8961C2.3537 14.1461 1.76009 13.2641 1.32287 12.2502C0.885088 11.2363 0.666199 10.153 0.666199 9.00023C0.666199 7.84746 0.885088 6.76412 1.32287 5.75023C1.76009 4.73634 2.3537 3.8544 3.1037 3.1044C3.8537 2.3544 4.73564 1.76051 5.74953 1.32273C6.76342 0.885512 7.84675 0.666901 8.99953 0.666901C10.1523 0.666901 11.2356 0.885512 12.2495 1.32273C13.2634 1.76051 14.1454 2.3544 14.8954 3.1044C15.6454 3.8544 16.239 4.73634 16.6762 5.75023C17.114 6.76412 17.3329 7.84746 17.3329 9.00023C17.3329 10.153 17.114 11.2363 16.6762 12.2502C16.239 13.2641 15.6454 14.1461 14.8954 14.8961C14.1454 15.6461 13.2634 16.2397 12.2495 16.6769C11.2356 17.1147 10.1523 17.3336 8.99953 17.3336ZM8.99953 15.6669C10.8606 15.6669 12.437 15.0211 13.7287 13.7294C15.0204 12.4377 15.6662 10.8613 15.6662 9.00023C15.6662 7.13912 15.0204 5.56273 13.7287 4.27107C12.437 2.9794 10.8606 2.33357 8.99953 2.33357C7.13842 2.33357 5.56203 2.9794 4.27036 4.27107C2.9787 5.56273 2.33287 7.13912 2.33287 9.00023C2.33287 10.8613 2.9787 12.4377 4.27036 13.7294C5.56203 15.0211 7.13842 15.6669 8.99953 15.6669Z" fill="#191D2D" fill-opacity="0.5"/>
</svg>
