<?xml version="1.0" encoding="UTF-8"?>
<!-- Generated by Pixelmator Pro 3.6.12 -->
<svg width="354" height="362" viewBox="0 0 354 362" xmlns="http://www.w3.org/2000/svg">
    <g id="Group">
        <path id="Path" fill="#f89d35" stroke="none" d="M 353.5 185 C 353.5 282.600006 274.399994 361.699982 176.800003 361.699982 C 79.199997 361.699982 0 282.600006 0 185 C 0 87.399994 79.199997 8.299988 176.800003 8.299988 C 274.399994 8.299988 353.5 87.399994 353.5 185"/>
        <path id="path1" fill="#ffffff" stroke="none" d="M 246.100006 92.600006 C 232.799988 77.799988 219.299988 71.899994 208.200012 76 C 206.100006 76.899994 204.100006 78.100006 202.299988 79.600006 L 67.199997 193.200012 C 61.100006 198.299988 58.800003 206.799988 61.600006 214.299988 L 68.800003 234.099991 C 71.5 241.599991 78.699997 246.599991 86.699997 246.599991 L 263.100006 246.5 C 265.399994 246.5 269.899994 245.299988 269.899994 245.299988 C 281.100006 241.199997 287.600006 228 288.200012 208.100006 C 288.799988 190.299988 284.700012 168.5 276.799988 146.799988 C 269 125.200012 258 105.899994 246.100006 92.600006 M 240.799988 180.100006 L 228 144.899994 C 237.700012 141.399994 248.5 146.399994 252 156.100006 C 255.600006 165.799988 250.5 176.5 240.799988 180.100006 M 206.799988 83.899994 L 206 84.5 C 192.700012 95.700012 192.899994 132.700012 207.299988 172.200012 C 217.5 200 232.299988 222.399994 246.200012 233.199997 L 86.699997 233.299988 C 84.300003 233.299988 82.199997 231.799988 81.300003 229.5 L 77.699997 219.599991 L 196.5 176.100006 C 181.600006 135.200012 186.399994 95.399994 206.799988 83.899994"/>
        <path id="path2" fill="#ffffff" stroke="none" d="M 212.299988 245.099991 C 211.200012 263.600006 196 276.600006 177.199997 276.799988 L 176.800003 276.799988 C 157.899994 276.799988 142.300003 263.699982 141.300003 245 L 154.800003 245 C 156.199997 255.899994 165.600006 263.600006 176.800003 263.600006 L 177 263.600006 C 188.100006 263.600006 197.200012 255.600006 198.700012 245"/>
    </g>
</svg>
