<svg width="19" height="15" viewBox="0 0 19 15" fill="none" xmlns="http://www.w3.org/2000/svg">
<path d="M1.9 15C1.3775 15 0.930208 14.8164 0.558125 14.4492C0.186042 14.082 0 13.6406 0 13.125V1.875C0 1.35938 0.186042 0.917969 0.558125 0.550781C0.930208 0.183594 1.3775 0 1.9 0H17.1C17.6225 0 18.0698 0.183594 18.4419 0.550781C18.814 0.917969 19 1.35938 19 1.875V13.125C19 13.6406 18.814 14.082 18.4419 14.4492C18.0698 14.8164 17.6225 15 17.1 15H1.9ZM9.5 8.4375L1.9 3.75V13.125H17.1V3.75L9.5 8.4375ZM9.5 6.5625L17.1 1.875H1.9L9.5 6.5625ZM1.9 3.75V1.875V13.125V3.75Z" fill="#191D2D" fill-opacity="0.5"/>
</svg>
