<svg width="27" height="21" viewBox="0 0 27 21" fill="none" xmlns="http://www.w3.org/2000/svg">
<path d="M26.25 2.62512V18.3751C26.25 19.097 25.9932 19.7152 25.4796 20.2297C24.9651 20.7433 24.3469 21.0001 23.625 21.0001H2.625C1.90312 21.0001 1.28538 20.7433 0.77175 20.2297C0.25725 19.7152 0 19.097 0 18.3751V2.62512C0 1.90325 0.25725 1.2855 0.77175 0.771872C1.28538 0.257372 1.90312 0.00012207 2.625 0.00012207H23.625C24.3469 0.00012207 24.9651 0.257372 25.4796 0.771872C25.9932 1.2855 26.25 1.90325 26.25 2.62512ZM2.625 5.25012H23.625V2.62512H2.625V5.25012ZM2.625 10.5001V18.3751H23.625V10.5001H2.625Z" fill="white" fill-opacity="0.6"/>
</svg>
