<svg width="26" height="22" viewBox="0 0 26 22" fill="none" xmlns="http://www.w3.org/2000/svg">
<path d="M7.85714 0C6.98927 0 6.28571 0.703553 6.28571 1.57143C6.28571 2.4393 6.98927 3.14286 7.85714 3.14286H17.2857C18.1536 3.14286 18.8571 2.4393 18.8571 1.57143C18.8571 0.703553 18.1536 0 17.2857 0H7.85714Z" fill="white" fill-opacity="0.6"/>
<path d="M3.14286 6.28571C3.14286 5.41784 3.84641 4.71429 4.71428 4.71429H20.4286C21.2964 4.71429 22 5.41784 22 6.28571C22 7.15359 21.2964 7.85714 20.4286 7.85714H4.71428C3.84641 7.85714 3.14286 7.15359 3.14286 6.28571Z" fill="white" fill-opacity="0.6"/>
<path d="M0 12.5714C0 10.8357 1.4071 9.42857 3.14286 9.42857H22C23.7357 9.42857 25.1429 10.8357 25.1429 12.5714V18.8571C25.1429 20.5929 23.7357 22 22 22H3.14286C1.4071 22 0 20.5929 0 18.8571V12.5714Z" fill="white" fill-opacity="0.6"/>
</svg>
