<svg width="23" height="23" viewBox="0 0 23 23" fill="none" xmlns="http://www.w3.org/2000/svg">
<path d="M11.4425 18.4C11.845 18.4 12.1852 18.261 12.4631 17.9831C12.741 17.7052 12.88 17.365 12.88 16.9625C12.88 16.56 12.741 16.2198 12.4631 15.9419C12.1852 15.664 11.845 15.525 11.4425 15.525C11.04 15.525 10.6998 15.664 10.4219 15.9419C10.144 16.2198 10.005 16.56 10.005 16.9625C10.005 17.365 10.144 17.7052 10.4219 17.9831C10.6998 18.261 11.04 18.4 11.4425 18.4ZM10.4075 13.9725H12.535C12.535 13.34 12.6069 12.8417 12.7506 12.4775C12.8944 12.1133 13.3017 11.615 13.9725 10.9825C14.4708 10.4842 14.8637 10.0098 15.1512 9.55937C15.4387 9.10896 15.5825 8.5675 15.5825 7.935C15.5825 6.86167 15.1896 6.0375 14.4037 5.4625C13.6179 4.8875 12.6883 4.6 11.615 4.6C10.5225 4.6 9.63604 4.8875 8.95562 5.4625C8.27521 6.0375 7.80083 6.7275 7.5325 7.5325L9.43 8.28C9.52583 7.935 9.74146 7.56125 10.0769 7.15875C10.4123 6.75625 10.925 6.555 11.615 6.555C12.2283 6.555 12.6883 6.72271 12.995 7.05813C13.3017 7.39354 13.455 7.7625 13.455 8.165C13.455 8.54833 13.34 8.90771 13.11 9.24312C12.88 9.57854 12.5925 9.89 12.2475 10.1775C11.4042 10.925 10.8867 11.4904 10.695 11.8737C10.5033 12.2571 10.4075 12.9567 10.4075 13.9725ZM11.5 23C9.90917 23 8.41417 22.6981 7.015 22.0944C5.61583 21.4906 4.39875 20.6712 3.36375 19.6362C2.32875 18.6012 1.50937 17.3842 0.905625 15.985C0.301875 14.5858 0 13.0908 0 11.5C0 9.90917 0.301875 8.41417 0.905625 7.015C1.50937 5.61583 2.32875 4.39875 3.36375 3.36375C4.39875 2.32875 5.61583 1.50937 7.015 0.905625C8.41417 0.301875 9.90917 0 11.5 0C13.0908 0 14.5858 0.301875 15.985 0.905625C17.3842 1.50937 18.6012 2.32875 19.6362 3.36375C20.6712 4.39875 21.4906 5.61583 22.0944 7.015C22.6981 8.41417 23 9.90917 23 11.5C23 13.0908 22.6981 14.5858 22.0944 15.985C21.4906 17.3842 20.6712 18.6012 19.6362 19.6362C18.6012 20.6712 17.3842 21.4906 15.985 22.0944C14.5858 22.6981 13.0908 23 11.5 23Z" fill="#B3B4BA"/>
</svg>
