<svg width="26" height="22" viewBox="0 0 26 22" fill="none" xmlns="http://www.w3.org/2000/svg">
<path d="M25.2188 18.75H3.125V0.90625C3.125 0.474609 2.77539 0.125 2.34375 0.125H0.78125C0.349609 0.125 0 0.474609 0 0.90625V20.3125C0 21.1753 0.699707 21.875 1.5625 21.875H25.2188C25.6504 21.875 26 21.5254 26 21.0938V19.5312C26 19.0996 25.6504 18.75 25.2188 18.75ZM23.6562 3.6875H17.8916C16.8477 3.6875 16.3247 4.94971 17.063 5.68799L18.645 7.27002L15.0625 10.853L11.48 7.27051C10.8696 6.66016 9.88037 6.66016 9.27051 7.27051L5.9165 10.6245C5.61133 10.9297 5.61133 11.4243 5.9165 11.7295L7.021 12.834C7.32617 13.1392 7.8208 13.1392 8.12598 12.834L10.375 10.5845L13.9575 14.167C14.5679 14.7773 15.5571 14.7773 16.167 14.167L20.8545 9.47949L22.4365 11.0615C23.1748 11.7998 24.437 11.2769 24.437 10.2329V4.46875C24.4375 4.03711 24.0879 3.6875 23.6562 3.6875Z" fill="white" fill-opacity="0.6"/>
</svg>
