<svg width="25" height="22" viewBox="0 0 25 22" fill="none" xmlns="http://www.w3.org/2000/svg">
<path d="M24.75 10.3125C24.75 9.29715 24.1936 8.42016 23.375 7.94406V1.37543C23.375 0.999453 23.0751 0 22 0C21.6941 0 21.3903 0.102266 21.1415 0.301641L17.4879 3.2248C15.6527 4.69176 13.3487 5.5 11 5.5H2.75C1.23105 5.5 0 6.73105 0 8.25V12.375C0 13.8939 1.23105 15.125 2.75 15.125H4.19805C4.13832 15.5753 4.10437 16.0334 4.10437 16.5C4.10437 18.2089 4.50227 19.8236 5.20266 21.267C5.42566 21.7263 5.9125 22 6.42297 22H9.61469C10.734 22 11.4061 20.7178 10.7276 19.8275C10.0229 18.9028 9.60394 17.7495 9.60394 16.5C9.60394 16.0226 9.67355 15.5637 9.79344 15.125H11C13.3487 15.125 15.6527 15.9332 17.4874 17.4002L21.1411 20.3234C21.3847 20.5184 21.6875 20.6247 21.9996 20.625C23.0704 20.625 23.3746 19.6462 23.3746 19.25V12.6814C24.1936 12.2048 24.75 11.3279 24.75 10.3125ZM20.625 16.3891L19.2049 15.253C16.8846 13.3968 13.97 12.375 11 12.375V8.25C13.97 8.25 16.8846 7.2282 19.2049 5.37195L20.625 4.23586V16.3891Z" fill="white" fill-opacity="0.6"/>
</svg>
