<svg width="28" height="22" viewBox="0 0 28 22" fill="none" xmlns="http://www.w3.org/2000/svg">
<path d="M22.0791 8.22993L21.7255 8.84646C21.5962 9.07496 21.3203 9.16981 21.0745 9.07927C20.5658 8.88957 20.1001 8.61795 19.6906 8.27735C19.4922 8.11352 19.4405 7.82465 19.5698 7.60046L19.9234 6.98393C19.6259 6.63902 19.3931 6.23806 19.2379 5.80261H18.5265C18.2678 5.80261 18.0436 5.61722 18.0005 5.35853C17.9143 4.84117 17.91 4.29793 18.0005 3.75901C18.0436 3.50032 18.2678 3.31062 18.5265 3.31062H19.2379C19.3931 2.87517 19.6259 2.47421 19.9234 2.1293L19.5698 1.51277C19.4405 1.28857 19.4879 0.999711 19.6906 0.835877C20.1001 0.495277 20.5701 0.223659 21.0745 0.0339573C21.3203 -0.0565821 21.5962 0.0382687 21.7255 0.266773L22.0791 0.883303C22.5318 0.801386 22.9931 0.801386 23.4458 0.883303L23.7993 0.266773C23.9287 0.0382687 24.2046 -0.0565821 24.4503 0.0339573C24.9591 0.223659 25.4247 0.495277 25.8343 0.835877C26.0326 0.999711 26.0844 1.28857 25.955 1.51277L25.6015 2.1293C25.899 2.47421 26.1318 2.87517 26.287 3.31062H26.9984C27.2571 3.31062 27.4813 3.49601 27.5244 3.75469C27.6106 4.27206 27.6149 4.8153 27.5244 5.35422C27.4813 5.61291 27.2571 5.80261 26.9984 5.80261H26.287C26.1318 6.23806 25.899 6.63902 25.6015 6.98393L25.955 7.60046C26.0844 7.82465 26.0369 8.11352 25.8343 8.27735C25.4247 8.61795 24.9548 8.88957 24.4503 9.07927C24.2046 9.16981 23.9287 9.07496 23.7993 8.84646L23.4458 8.22993C22.9974 8.31184 22.5318 8.31184 22.0791 8.22993ZM21.6264 5.69482C23.2863 6.971 25.179 5.07829 23.9028 3.41841C22.2429 2.13792 20.3502 4.03493 21.6264 5.69482ZM16.6553 12.3301L18.1083 13.0544C18.5437 13.3044 18.7334 13.8347 18.561 14.309C18.1773 15.3524 17.4228 16.3095 16.7243 17.1459C16.4053 17.5296 15.8534 17.6245 15.418 17.3744L14.1634 16.6501C13.4735 17.2407 12.6716 17.7107 11.7964 18.0168V19.4654C11.7964 19.9656 11.4385 20.3967 10.947 20.4829C9.88644 20.664 8.7741 20.6726 7.67469 20.4829C7.17888 20.3967 6.81241 19.9699 6.81241 19.4654V18.0168C5.9372 17.7064 5.13528 17.2407 4.44546 16.6501L3.19084 17.3701C2.7597 17.6202 2.20353 17.5253 1.88449 17.1416C1.18604 16.3052 0.44879 15.348 0.0650758 14.309C-0.10738 13.8391 0.0823214 13.3088 0.517773 13.0544L1.95347 12.3301C1.78532 11.429 1.78532 10.502 1.95347 9.59664L0.517773 8.86801C0.0823214 8.61795 -0.111692 8.08765 0.0650758 7.61771C0.44879 6.57435 1.18604 5.61722 1.88449 4.78081C2.20353 4.39709 2.75539 4.30224 3.19084 4.5523L4.44546 5.27662C5.13528 4.68596 5.9372 4.21601 6.81241 3.9099V2.45696C6.81241 1.96115 7.16595 1.53001 7.65745 1.44378C8.71805 1.26271 9.83471 1.25408 10.9341 1.43947C11.4299 1.5257 11.7964 1.95253 11.7964 2.45696V3.90559C12.6716 4.21601 13.4735 4.68165 14.1634 5.27231L15.418 4.54799C15.8491 4.29793 16.4053 4.39278 16.7243 4.7765C17.4228 5.61291 18.1557 6.57004 18.5394 7.6134C18.7119 8.08334 18.5437 8.61364 18.1083 8.86801L16.6553 9.59233C16.8235 10.4977 16.8235 11.4247 16.6553 12.3301ZM11.5851 13.2398C14.1375 9.91999 10.3478 6.13028 7.02798 8.68262C4.47564 12.0024 8.26536 15.7921 11.5851 13.2398ZM22.0791 21.1167L21.7255 21.7332C21.5962 21.9617 21.3203 22.0566 21.0745 21.966C20.5658 21.7763 20.1001 21.5047 19.6906 21.1641C19.4922 21.0003 19.4405 20.7114 19.5698 20.4872L19.9234 19.8707C19.6259 19.5258 19.3931 19.1248 19.2379 18.6894H18.5265C18.2678 18.6894 18.0436 18.504 18.0005 18.2453C17.9143 17.7279 17.91 17.1847 18.0005 16.6458C18.0436 16.3871 18.2678 16.1974 18.5265 16.1974H19.2379C19.3931 15.7619 19.6259 15.361 19.9234 15.0161L19.5698 14.3995C19.4405 14.1753 19.4879 13.8865 19.6906 13.7226C20.1001 13.382 20.5701 13.1104 21.0745 12.9207C21.3203 12.8302 21.5962 12.925 21.7255 13.1535L22.0791 13.7701C22.5318 13.6882 22.9931 13.6882 23.4458 13.7701L23.7993 13.1535C23.9287 12.925 24.2046 12.8302 24.4503 12.9207C24.9591 13.1104 25.4247 13.382 25.8343 13.7226C26.0326 13.8865 26.0844 14.1753 25.955 14.3995L25.6015 15.0161C25.899 15.361 26.1318 15.7619 26.287 16.1974H26.9984C27.2571 16.1974 27.4813 16.3828 27.5244 16.6415C27.6106 17.1588 27.6149 17.7021 27.5244 18.241C27.4813 18.4997 27.2571 18.6894 26.9984 18.6894H26.287C26.1318 19.1248 25.899 19.5258 25.6015 19.8707L25.955 20.4872C26.0844 20.7114 26.0369 21.0003 25.8343 21.1641C25.4247 21.5047 24.9548 21.7763 24.4503 21.966C24.2046 22.0566 23.9287 21.9617 23.7993 21.7332L23.4458 21.1167C22.9974 21.1986 22.5318 21.1986 22.0791 21.1167ZM21.6264 18.5773C23.2863 19.8535 25.179 17.9608 23.9028 16.3009C22.2429 15.0247 20.3502 16.9174 21.6264 18.5773Z" fill="white" fill-opacity="0.6"/>
</svg>
