<svg width="79" height="20" viewBox="0 0 79 20" fill="none" xmlns="http://www.w3.org/2000/svg">
<path d="M22.2671 5.84033V15H23.9048V11.9722H25.7583C27.6118 11.9722 28.9131 10.7344 28.9131 8.90625C28.9131 7.07812 27.6499 5.84033 25.8281 5.84033H22.2671ZM23.9048 7.17969H25.3965C26.5708 7.17969 27.25 7.80811 27.25 8.90625C27.25 10.0171 26.5645 10.6519 25.3901 10.6519H23.9048V7.17969ZM31.4395 15.1079C32.3027 15.1079 33.147 14.6572 33.5342 13.9272H33.5659V15H35.0894V10.3662C35.0894 9.01416 34.0039 8.13184 32.3345 8.13184C30.6206 8.13184 29.5479 9.0332 29.478 10.29H30.9443C31.0459 9.73145 31.522 9.36963 32.271 9.36963C33.0518 9.36963 33.5278 9.77588 33.5278 10.4805V10.9629L31.7505 11.0645C30.1128 11.166 29.1924 11.8833 29.1924 13.0767C29.1924 14.2891 30.1382 15.1079 31.4395 15.1079ZM31.9155 13.9146C31.23 13.9146 30.7729 13.5654 30.7729 13.0132C30.7729 12.48 31.2109 12.1372 31.9727 12.0864L33.5278 11.9912V12.5054C33.5278 13.3179 32.8105 13.9146 31.9155 13.9146ZM37.0952 17.501C38.6313 17.501 39.374 16.936 39.9453 15.2666L42.3828 8.27148H40.7197L39.1328 13.6543H39.1011L37.5205 8.27148H35.7939L38.187 15.0063C38.1934 15.0254 38.0918 15.3618 38.0918 15.3809C37.9204 16.0029 37.584 16.2505 36.9302 16.2505C36.835 16.2505 36.5557 16.2441 36.4731 16.2251V17.4756C36.5557 17.4946 37 17.501 37.0952 17.501ZM43.1318 15H44.7124V10.8804C44.7124 10.0679 45.2456 9.47754 46.0073 9.47754C46.7437 9.47754 47.2007 9.94092 47.2007 10.6899V15H48.7368V10.8423C48.7368 10.0361 49.2573 9.47754 50.019 9.47754C50.7935 9.47754 51.2251 9.94727 51.2251 10.7725V15H52.8057V10.3853C52.8057 9.03955 51.936 8.14453 50.6094 8.14453C49.6382 8.14453 48.8384 8.66504 48.5146 9.49658H48.4766C48.229 8.6333 47.5498 8.14453 46.5977 8.14453C45.6836 8.14453 44.9727 8.65869 44.6807 9.43945H44.6489V8.27148H43.1318V15ZM58.5312 12.9878C58.3599 13.5464 57.8013 13.9146 57.0649 13.9146C56.0303 13.9146 55.3701 13.1909 55.3701 12.1118V12.0166H60.0737V11.5024C60.0737 9.4585 58.8804 8.13184 56.9697 8.13184C55.0273 8.13184 53.7959 9.53467 53.7959 11.6611C53.7959 13.8066 55.0146 15.1333 57.0332 15.1333C58.6265 15.1333 59.8071 14.2573 60.0103 12.9878H58.5312ZM56.9761 9.35693C57.8838 9.35693 58.4932 10.0234 58.5249 10.9756H55.3828C55.4463 10.0361 56.0874 9.35693 56.9761 9.35693ZM61.0957 15H62.6763V11.1025C62.6763 10.1377 63.2539 9.48389 64.1616 9.48389C65.063 9.48389 65.5073 10.0171 65.5073 10.9692V15H67.0879V10.6519C67.0879 9.09668 66.2437 8.14453 64.7583 8.14453C63.7236 8.14453 63.0063 8.62695 62.6445 9.42676H62.6128V8.27148H61.0957V15ZM68.7954 6.69727V8.27148H67.8306V9.49023H68.7954V13.21C68.7954 14.5176 69.3667 15.0317 70.8203 15.0317C71.1567 15.0317 71.4678 15.0063 71.6392 14.9683V13.7622C71.5376 13.7812 71.3345 13.7939 71.1885 13.7939C70.6299 13.7939 70.376 13.54 70.376 12.9878V9.49023H71.6455V8.27148H70.376V6.69727H68.7954ZM72.604 10.2012C72.604 11.1978 73.2515 11.8325 74.54 12.1182L75.6572 12.3657C76.3618 12.5244 76.603 12.7529 76.603 13.1592C76.603 13.6606 76.127 13.978 75.3589 13.978C74.5591 13.978 74.1084 13.6479 73.9878 12.9941H72.4326C72.5596 14.2954 73.6006 15.1333 75.3589 15.1333C77.0093 15.1333 78.1772 14.2764 78.1772 13.0068C78.1772 12.0293 77.6377 11.4897 76.2412 11.1787L75.124 10.9312C74.4194 10.7725 74.1401 10.5059 74.1401 10.1187C74.1401 9.62354 74.6035 9.29346 75.3018 9.29346C76.0317 9.29346 76.4824 9.68066 76.5459 10.29H78.0186C77.9805 9.01416 76.9395 8.13184 75.3018 8.13184C73.6768 8.13184 72.604 8.96973 72.604 10.2012Z" fill="#191D2D" fill-opacity="0.7"/>
<mask id="mask0_419_9099" style="mask-type:alpha" maskUnits="userSpaceOnUse" x="0" y="1" width="18" height="18">
<rect y="1.00006" width="18" height="18" fill="#D9D9D9"/>
</mask>
<g mask="url(#mask0_419_9099)">
<path d="M16.5 5.50006V14.5001C16.5 14.9126 16.3533 15.2658 16.0597 15.5598C15.7657 15.8533 15.4125 16.0001 15 16.0001H3C2.5875 16.0001 2.2345 15.8533 1.941 15.5598C1.647 15.2658 1.5 14.9126 1.5 14.5001V5.50006C1.5 5.08756 1.647 4.73456 1.941 4.44106C2.2345 4.14706 2.5875 4.00006 3 4.00006H15C15.4125 4.00006 15.7657 4.14706 16.0597 4.44106C16.3533 4.73456 16.5 5.08756 16.5 5.50006ZM3 7.00006H15V5.50006H3V7.00006ZM3 10.0001V14.5001H15V10.0001H3Z" fill="#191D2D" fill-opacity="0.3"/>
</g>
</svg>
