<svg width="25" height="18" viewBox="0 0 25 18" fill="none" xmlns="http://www.w3.org/2000/svg">
<path d="M12.4313 18C9.91875 18 7.78125 17.1281 6.01875 15.3844C4.25625 13.6406 3.375 11.5125 3.375 9V8.80312L1.575 10.6031L0 9.02812L4.5 4.52812L9 9.02812L7.425 10.6031L5.625 8.80312V9C5.625 10.875 6.28613 12.4688 7.60838 13.7812C8.92988 15.0938 10.5375 15.75 12.4313 15.75C12.9187 15.75 13.3969 15.6938 13.8656 15.5813C14.3344 15.4688 14.7937 15.3 15.2438 15.075L16.9312 16.7625C16.2188 17.175 15.4875 17.4844 14.7375 17.6906C13.9875 17.8969 13.2188 18 12.4313 18ZM20.25 13.4719L15.75 8.97188L17.325 7.39687L19.125 9.19688V9C19.125 7.125 18.4643 5.53125 17.1428 4.21875C15.8205 2.90625 14.2125 2.25 12.3187 2.25C11.8313 2.25 11.3531 2.30625 10.8844 2.41875C10.4156 2.53125 9.95625 2.7 9.50625 2.925L7.81875 1.2375C8.53125 0.825 9.2625 0.515625 10.0125 0.309375C10.7625 0.103125 11.5312 0 12.3187 0C14.8313 0 16.9688 0.871875 18.7312 2.61562C20.4937 4.35937 21.375 6.4875 21.375 9V9.19688L23.175 7.39687L24.75 8.97188L20.25 13.4719Z" fill="#50A66A"/>
</svg>
