<svg width="20" height="20" viewBox="0 0 20 20" fill="none" xmlns="http://www.w3.org/2000/svg">
<path fill-rule="evenodd" clip-rule="evenodd" d="M1.6665 9.99999C1.6665 5.39999 5.39984 1.66666 9.99984 1.66666C14.5998 1.66666 18.3332 5.39999 18.3332 9.99999C18.3332 14.6 14.5998 18.3333 9.99984 18.3333C5.39984 18.3333 1.6665 14.6 1.6665 9.99999ZM10.8332 13.3333V15H9.1665V13.3333H10.8332ZM9.99984 16.6667C6.32484 16.6667 3.33317 13.675 3.33317 9.99999C3.33317 6.32499 6.32484 3.33332 9.99984 3.33332C13.6748 3.33332 16.6665 6.32499 16.6665 9.99999C16.6665 13.675 13.6748 16.6667 9.99984 16.6667ZM6.6665 8.33332C6.6665 6.49166 8.15817 4.99999 9.99984 4.99999C11.8415 4.99999 13.3332 6.49166 13.3332 8.33332C13.3332 9.40242 12.6748 9.97775 12.0338 10.5379C11.4257 11.0694 10.8332 11.5872 10.8332 12.5H9.1665C9.1665 10.9823 9.9516 10.3805 10.6419 9.85138C11.1834 9.43633 11.6665 9.066 11.6665 8.33332C11.6665 7.41666 10.9165 6.66666 9.99984 6.66666C9.08317 6.66666 8.33317 7.41666 8.33317 8.33332H6.6665Z" fill="#191D2D" fill-opacity="0.4"/>
</svg>
