<svg width="20" height="14" viewBox="0 0 20 14" fill="none" xmlns="http://www.w3.org/2000/svg">
<path d="M10 10.9091C11.1364 10.9091 12.1024 10.5115 12.8982 9.71636C13.6933 8.92061 14.0909 7.95455 14.0909 6.81818C14.0909 5.68182 13.6933 4.71576 12.8982 3.92C12.1024 3.12485 11.1364 2.72727 10 2.72727C8.86364 2.72727 7.89758 3.12485 7.10182 3.92C6.30667 4.71576 5.90909 5.68182 5.90909 6.81818C5.90909 7.95455 6.30667 8.92061 7.10182 9.71636C7.89758 10.5115 8.86364 10.9091 10 10.9091ZM10 9.27273C9.31818 9.27273 8.73879 9.03394 8.26182 8.55636C7.78424 8.07939 7.54545 7.5 7.54545 6.81818C7.54545 6.13636 7.78424 5.55667 8.26182 5.07909C8.73879 4.60212 9.31818 4.36364 10 4.36364C10.6818 4.36364 11.2615 4.60212 11.7391 5.07909C12.2161 5.55667 12.4545 6.13636 12.4545 6.81818C12.4545 7.5 12.2161 8.07939 11.7391 8.55636C11.2615 9.03394 10.6818 9.27273 10 9.27273ZM10 13.6364C7.78788 13.6364 5.77273 13.0188 3.95455 11.7836C2.13636 10.5491 0.818182 8.89394 0 6.81818C0.818182 4.74242 2.13636 3.08697 3.95455 1.85182C5.77273 0.617273 7.78788 0 10 0C12.2121 0 14.2273 0.617273 16.0455 1.85182C17.8636 3.08697 19.1818 4.74242 20 6.81818C19.1818 8.89394 17.8636 10.5491 16.0455 11.7836C14.2273 13.0188 12.2121 13.6364 10 13.6364ZM10 11.8182C11.7121 11.8182 13.2842 11.3673 14.7164 10.4655C16.1479 9.56424 17.2424 8.34849 18 6.81818C17.2424 5.28788 16.1479 4.07182 14.7164 3.17C13.2842 2.26879 11.7121 1.81818 10 1.81818C8.28788 1.81818 6.71576 2.26879 5.28364 3.17C3.85212 4.07182 2.75758 5.28788 2 6.81818C2.75758 8.34849 3.85212 9.56424 5.28364 10.4655C6.71576 11.3673 8.28788 11.8182 10 11.8182Z" fill="#191D2D" fill-opacity="0.4"/>
</svg>
