<svg width="12" height="12" viewBox="0 0 12 12" fill="none" xmlns="http://www.w3.org/2000/svg">
<path d="M4.49707 4.75C4.49707 4.60937 4.3877 4.5 4.24707 4.5H3.74707C3.60645 4.5 3.49707 4.60937 3.49707 4.75V9.25C3.49707 9.39062 3.60645 9.5 3.74707 9.5H4.24707C4.3877 9.5 4.49707 9.39062 4.49707 9.25V4.75ZM6.49707 4.75C6.49707 4.60937 6.3877 4.5 6.24707 4.5H5.74707C5.60645 4.5 5.49707 4.60937 5.49707 4.75V9.25C5.49707 9.39062 5.60645 9.5 5.74707 9.5H6.24707C6.3877 9.5 6.49707 9.39062 6.49707 9.25V4.75ZM8.49707 4.75C8.49707 4.60937 8.3877 4.5 8.24707 4.5H7.74707C7.60645 4.5 7.49707 4.60937 7.49707 4.75V9.25C7.49707 9.39062 7.60645 9.5 7.74707 9.5H8.24707C8.3877 9.5 8.49707 9.39062 8.49707 9.25V4.75ZM9.49707 10.4062C9.49707 10.7812 9.28613 11 9.24707 11H2.74707C2.70801 11 2.49707 10.7812 2.49707 10.4062V3H9.49707V10.4062ZM4.24707 2L4.62988 1.08594C4.65332 1.05469 4.71582 1.00781 4.7627 1H7.23926C7.27832 1.00781 7.34863 1.05469 7.37207 1.08594L7.74707 2H4.24707ZM11.4971 2.25C11.4971 2.10937 11.3877 2 11.2471 2H8.83301L8.28613 0.695312C8.12988 0.3125 7.66113 -5.96046e-07 7.24707 -5.96046e-07H4.74707C4.33301 -5.96046e-07 3.86426 0.3125 3.70801 0.695312L3.16113 2H0.74707C0.606445 2 0.49707 2.10937 0.49707 2.25V2.75C0.49707 2.89062 0.606445 3 0.74707 3H1.49707V10.4375C1.49707 11.2969 2.05957 12 2.74707 12H9.24707C9.93457 12 10.4971 11.2656 10.4971 10.4062V3H11.2471C11.3877 3 11.4971 2.89062 11.4971 2.75V2.25Z" fill="#191D2D" fill-opacity="0.65"/>
</svg>
