<svg width="19" height="19" viewBox="0 0 19 19" fill="none" xmlns="http://www.w3.org/2000/svg">
<path d="M9.5 19C8.18056 19 6.94468 18.7493 5.79236 18.2479C4.64005 17.7465 3.63727 17.0692 2.78403 16.216C1.93079 15.3627 1.25347 14.36 0.752083 13.2076C0.250694 12.0553 0 10.8194 0 9.5C0 8.18056 0.250694 6.94468 0.752083 5.79236C1.25347 4.64005 1.93079 3.63727 2.78403 2.78403C3.63727 1.93079 4.64005 1.25347 5.79236 0.752083C6.94468 0.250694 8.18056 0 9.5 0C10.9426 0 12.3104 0.30787 13.6035 0.923611C14.8965 1.53935 15.9917 2.41019 16.8889 3.53611V1.05556H19V7.38889H12.6667V5.27778H15.5694C14.8481 4.29259 13.9597 3.51852 12.9042 2.95556C11.8486 2.39259 10.7139 2.11111 9.5 2.11111C7.44167 2.11111 5.6956 2.82801 4.26181 4.26181C2.82801 5.6956 2.11111 7.44167 2.11111 9.5C2.11111 11.5583 2.82801 13.3044 4.26181 14.7382C5.6956 16.172 7.44167 16.8889 9.5 16.8889C11.3472 16.8889 12.9613 16.2907 14.3424 15.0944C15.7234 13.8981 16.537 12.3852 16.7833 10.5556H18.9472C18.6833 12.9657 17.6498 14.9757 15.8465 16.5854C14.0433 18.1951 11.9278 19 9.5 19Z" fill="#191D2D" fill-opacity="0.5"/>
</svg>
