<svg width="16" height="16" viewBox="0 0 16 16" fill="none" xmlns="http://www.w3.org/2000/svg">
<path d="M15.65 0.5V0.35H15.5H8.5H8.35V0.5V2V2.15H8.5H12.5779L6.86393 7.86393L6.75787 7.97L6.86393 8.07607L7.92393 9.13607L8.03 9.24213L8.13607 9.13607L13.85 3.42213V7.5V7.65H14H15.5H15.65V7.5V0.5ZM14.65 10.5V10.35H14.5H13H12.85V10.5V13.5C12.85 13.5928 12.8131 13.6819 12.7475 13.7475C12.6819 13.8131 12.5928 13.85 12.5 13.85H2.5C2.40717 13.85 2.31815 13.8131 2.25251 13.7475C2.18687 13.6819 2.15 13.5928 2.15 13.5V3.5C2.15 3.40717 2.18687 3.31815 2.25251 3.25251C2.31815 3.18687 2.40717 3.15 2.5 3.15H5.5H5.65V3V1.5V1.35H5.5H2.5C1.92978 1.35 1.38292 1.57652 0.97972 1.97972C0.576517 2.38292 0.35 2.92978 0.35 3.5V13.5C0.35 14.0702 0.576517 14.6171 0.97972 15.0203C1.38292 15.4235 1.92978 15.65 2.5 15.65H12.5C13.0702 15.65 13.6171 15.4235 14.0203 15.0203C14.4235 14.6171 14.65 14.0702 14.65 13.5V10.5Z" fill="#A3A5AB" stroke="#A3A5AB" stroke-width="0.3"/>
</svg>
