<?xml version="1.0" encoding="UTF-8"?><svg width="448" height="473" viewBox="0 0 448 473" xmlns="http://www.w3.org/2000/svg">
    <path id="Path" fill="#FFFFFF" stroke="none" d="M 448 150.589996 C 448 46.459991 379.73999 15.940002 379.73999 15.940002 C 345.299988 0.149994 286.200012 -6.5 224.799988 -7 L 223.289993 -7 C 161.889999 -6.5 102.830002 0.149994 68.410004 15.940002 C 68.410004 15.940002 0.139999 46.459991 0.139999 150.589996 C 0.139999 174.440002 -0.32 202.940002 0.43 233.179993 C 2.91 335 19.110001 435.369995 113.320007 460.290009 C 156.75 471.779999 194.050003 474.179993 224.079987 472.529999 C 278.549988 469.529999 309.079987 453.109985 309.079987 453.109985 L 307.290009 413.609985 C 307.290009 413.609985 268.359985 425.880005 224.649994 424.380005 C 181.339996 422.899994 135.649994 419.709991 128.649994 366.570007 C 127.97467 361.632202 127.640549 356.653748 127.649994 351.670013 C 159.345657 358.745605 191.597687 363.045197 224.040009 364.519989 C 256.98999 366.029999 287.880005 362.589996 319.26001 358.850006 C 379.440002 351.670013 431.839996 314.609985 438.420013 280.76001 C 448.839996 227.419983 448 150.589996 448 150.589996 Z M 367.459991 284.75 L 317.459991 284.75 L 317.459991 162.380005 C 317.459991 136.580017 306.600006 123.48999 284.880005 123.48999 C 260.880005 123.48999 248.820007 139.02002 248.820007 169.72998 L 248.820007 236.730011 L 199.160004 236.730011 L 199.160004 169.72998 C 199.160004 139.02002 187.160004 123.48999 163.100006 123.48999 C 141.380005 123.48999 130.520004 136.580017 130.520004 162.380005 L 130.520004 284.75 L 80.519997 284.75 L 80.519997 158.669983 C 80.519997 132.903341 87.103333 112.440013 100.270004 97.279999 C 113.869995 82.130005 131.669998 74.359985 153.779999 74.359985 C 179.360001 74.359985 198.729996 84.179993 211.529999 103.839996 L 224 124.690002 L 236.450012 103.839996 C 249.26001 84.179993 268.619995 74.359985 294.200012 74.359985 C 316.309998 74.359985 334.109985 82.130005 347.709991 97.279999 C 360.90333 112.426666 367.486664 132.889994 367.459991 158.669983 Z"/>
</svg>
