<svg xmlns="http://www.w3.org/2000/svg" xmlns:xlink="http://www.w3.org/1999/xlink" viewBox="0,0,256,256" width="48px" height="48px"><g fill="#000000" fill-rule="nonzero" stroke="none" stroke-width="1" stroke-linecap="butt" stroke-linejoin="miter" stroke-miterlimit="10" stroke-dasharray="" stroke-dashoffset="0" font-family="none" font-weight="none" font-size="none" text-anchor="none" style="mix-blend-mode: normal"><g transform="scale(10.66667,10.66667)"><path d="M20,2h-16c-1.10156,0 -2,0.89844 -2,2v16c0,1.10156 0.89844,2 2,2h16c1.10156,0 2,-0.89844 2,-2v-16c0,-1.10156 -0.89844,-2 -2,-2zM17,17.875c0,0.04688 -0.01953,0.09766 -0.05859,0.125c-0.04687,0.04688 -1.42578,1 -3.94141,1c-3.01953,0 -3,-3.61328 -3,-4v-4h-1.82422c-0.09766,0 -0.17578,-0.07812 -0.17578,-0.17578v-1.66016c0,-0.07812 0.03906,-0.13672 0.10547,-0.16406c0.03125,-0.01172 2.89453,-1.26953 2.89453,-3.82422c0,-0.09766 0.07813,-0.17578 0.17578,-0.17578h1.65234c0.09375,0 0.17188,0.07813 0.17188,0.17578v3.82422h2.82422c0.08984,0 0.17578,0.07813 0.17578,0.17578v1.65234c0,0.09375 -0.08594,0.17188 -0.17578,0.17188h-2.82422v4c0,0.05859 -0.09375,1.27344 1.19922,1.27344c1.0625,0 2.51953,-0.34766 2.53125,-0.34766c0.05859,-0.03906 0.125,-0.03906 0.17188,-0.00781c0.05859,0.02734 0.09766,0.08594 0.09766,0.15234z"></path></g></g></svg>