<?xml version="1.0" encoding="UTF-8"?> <svg xmlns="http://www.w3.org/2000/svg" width="41" height="41" viewBox="0 0 41 41" fill="#22C55E"><path fill-rule="evenodd" clip-rule="evenodd" d="M17.6745 9.89798L18.1963 7.47977C18.2482 7.23973 18.1513 7.00217 17.9677 6.863L16.1597 5.24526L18.6214 4.99429C18.8484 4.97188 19.0341 4.82776 19.1201 4.63285L19.121 4.63329L20.1197 2.37126L21.1183 4.63329C21.2155 4.85399 21.4274 4.98858 21.6531 4.99784L24.0797 5.24526L22.2343 6.89645C22.0652 7.04778 22.0004 7.27226 22.0449 7.47939L22.0431 7.47977L22.5649 9.89798L20.4257 8.65395C20.2266 8.53864 19.9893 8.54844 19.805 8.65901L17.6745 9.89798ZM20.1197 9.88861L23.1198 11.6332C23.2519 11.7196 23.4171 11.7552 23.5837 11.7192C23.9137 11.648 24.1235 11.3225 24.0522 10.9925L23.313 7.56707L25.901 5.25134C26.0227 5.15219 26.1063 5.00657 26.1228 4.8381C26.1559 4.50268 25.9108 4.2041 25.5754 4.17109L22.0939 3.81612L20.6791 0.611762C20.6197 0.47669 20.5116 0.362621 20.3659 0.298532C20.057 0.162544 19.6963 0.302733 19.5603 0.611708L18.1455 3.81612L14.6639 4.17109L14.6641 4.17179C14.5174 4.18617 14.3755 4.25343 14.2696 4.37192C14.0451 4.62278 14.0665 5.00807 14.3174 5.23255L16.9264 7.56707L16.1872 10.9925L16.1881 10.9927C16.1571 11.136 16.1773 11.2908 16.2565 11.4276C16.4255 11.7194 16.7991 11.8189 17.0909 11.6499L20.1197 9.88861ZM28.3155 11.5177L29.7409 10.6888C29.9253 10.5782 30.1625 10.5683 30.3616 10.6837L31.7957 11.5177L31.4459 9.8968L31.4478 9.89637C31.4033 9.68929 31.4681 9.46481 31.6372 9.31342L32.8747 8.20613L31.2596 8.04149C31.0339 8.03217 30.822 7.89764 30.7248 7.67688L30.0556 6.16114L29.3864 7.67688L29.3855 7.67651C29.2995 7.87136 29.1138 8.01553 28.8867 8.03788L27.2365 8.20613L28.4367 9.28003C28.6203 9.4192 28.7172 9.65676 28.6653 9.8968L28.3155 11.5177ZM30.0556 11.9184L27.7319 13.2696C27.4401 13.4386 27.0665 13.339 26.8975 13.0473C26.8183 12.9104 26.7981 12.7557 26.8291 12.6124L26.8282 12.6122L27.3954 9.9841L25.3942 8.19347C25.1434 7.969 25.1219 7.58366 25.3464 7.33285C25.4524 7.21436 25.5943 7.1471 25.7409 7.13266L25.7408 7.13196L28.4109 6.85977L29.4962 4.40154C29.6322 4.09262 29.9929 3.95238 30.3018 4.08837C30.4475 4.15245 30.5556 4.26652 30.615 4.40159L31.7003 6.85977L34.3704 7.13196C34.7058 7.16498 34.9509 7.46361 34.9178 7.79897C34.9013 7.96744 34.8177 8.11312 34.6961 8.21222L32.7159 9.98404L33.283 12.6122C33.3543 12.9423 33.1445 13.2677 32.8145 13.339C32.6479 13.3749 32.4827 13.3393 32.3506 13.2529L30.0556 11.9184ZM8.44368 11.5177L9.8691 10.6888C10.0534 10.5782 10.2906 10.5683 10.4898 10.6837L11.9239 11.5177L11.5741 9.8968L11.576 9.89637C11.5314 9.68929 11.5962 9.46481 11.7654 9.31342L13.0029 8.20613L11.3878 8.04149C11.162 8.03217 10.9502 7.89764 10.853 7.67688L10.1838 6.16114L9.51456 7.67688L9.51365 7.67651C9.42764 7.87136 9.24199 8.01553 9.01488 8.03788L7.36471 8.20613L8.56485 9.28003C8.74845 9.4192 8.84534 9.65676 8.79347 9.8968L8.44368 11.5177ZM10.1838 11.9184L7.86003 13.2696C7.56829 13.4386 7.19469 13.339 7.02569 13.0473C6.94646 12.9104 6.92627 12.7557 6.95723 12.6124L6.95637 12.6122L7.52354 9.9841L5.52239 8.19347C5.27152 7.969 5.25014 7.58366 5.47456 7.33285C5.58055 7.21436 5.72247 7.1471 5.86912 7.13266L5.86901 7.13196L8.53906 6.85977L9.62437 4.40154C9.76036 4.09262 10.121 3.95238 10.43 4.08837C10.5756 4.15245 10.6838 4.26652 10.7432 4.40159L11.8285 6.85977L14.4986 7.13196C14.8339 7.16498 15.079 7.46361 15.0461 7.79897C15.0295 7.96744 14.9458 8.11312 14.8242 8.21222L12.844 9.98404L13.4112 12.6122C13.4825 12.9423 13.2727 13.2677 12.9426 13.339C12.7761 13.3749 12.6108 13.3393 12.4788 13.2529L10.1838 11.9184ZM35.115 27.7144L35.2578 27.9618L38.586 26.0402L32.3942 15.3156L29.067 17.2365L35.1096 27.7027L35.1086 27.7033L35.115 27.7144ZM9.55054 31.0447C9.54224 31.0578 9.53336 31.0707 9.52398 31.0833L9.51801 31.0911L9.36285 31.3121C9.20769 31.5331 9.15733 31.7992 9.20117 32.0497C9.24334 32.2906 9.37292 32.5157 9.58037 32.6711C9.59696 32.6816 9.61306 32.6929 9.62858 32.7049C9.8447 32.8474 10.1008 32.8927 10.3424 32.8504C10.5912 32.8068 10.8232 32.6701 10.9788 32.4506L12.6309 30.0973C12.7851 29.8766 12.8351 29.6112 12.7914 29.3613C12.7476 29.1111 12.6095 28.8779 12.3879 28.7223C12.1668 28.5671 11.9007 28.5168 11.6502 28.5606C11.4 28.6044 11.1668 28.7424 11.0112 28.9641L9.55054 31.0447ZM5.15325 27.9736C5.1678 27.9425 5.18519 27.9123 5.20544 27.8833L10.9454 17.9414C10.9539 17.9249 10.9632 17.9089 10.9731 17.8935L11.1735 17.5463L7.84528 15.6248L1.65339 26.3494L4.98162 28.2709L5.15325 27.9736ZM1.90899 9.09385C1.62646 8.91036 1.54621 8.5325 1.7297 8.24997C1.91324 7.96739 2.2911 7.88714 2.57363 8.07063L5.63393 10.0543C5.91646 10.2378 5.99676 10.6157 5.81321 10.8982C5.62972 11.1807 5.25187 11.261 4.96934 11.0775L1.90899 9.09385ZM2.70898 13.5296L5.13904 14.2005C5.46379 14.2902 5.79991 14.0997 5.88969 13.7749C5.97947 13.4501 5.78892 13.114 5.46412 13.0242L3.03405 12.3534C2.7093 12.2636 2.37318 12.4542 2.2834 12.779C2.19362 13.1037 2.38417 13.4399 2.70898 13.5296ZM37.6658 8.07063C37.9483 7.88714 38.3262 7.96739 38.5097 8.24997C38.6932 8.5325 38.6129 8.91036 38.3304 9.09385L35.2701 11.0775C34.9875 11.261 34.6097 11.1807 34.4262 10.8982C34.2426 10.6157 34.3229 10.2378 34.6055 10.0543L37.6658 8.07063ZM37.2053 12.3534L34.7753 13.0242C34.4505 13.114 34.2599 13.4501 34.3497 13.7749C34.4395 14.0997 34.7756 14.2902 35.1004 14.2005L37.5304 13.5296C37.8552 13.4399 38.0458 13.1037 37.956 12.779C37.8662 12.4542 37.5301 12.2636 37.2053 12.3534ZM31.1381 29.293L33.7478 27.7863L28.4268 18.5701L27.8515 18.9023C27.8412 18.909 27.8308 18.9156 27.8201 18.9218C27.4909 19.1119 27.1552 19.2428 26.8045 19.3164C26.4545 19.3899 26.0955 19.405 25.7188 19.3635L20.006 18.7343C19.7314 18.7041 19.4719 18.7423 19.2427 18.8424C19.0133 18.9427 18.8089 19.107 18.6448 19.3286L14.9036 24.3823C14.8638 24.4361 14.8375 24.491 14.8251 24.5461C14.813 24.5995 14.8137 24.6608 14.8271 24.7291C14.8405 24.7976 14.8628 24.8541 14.8934 24.898C14.9261 24.9449 14.9712 24.986 15.028 25.0204C15.3731 25.23 15.7608 25.3562 16.1588 25.3925C16.5491 25.4282 16.9513 25.3759 17.3349 25.2297C17.4217 25.1965 17.4963 25.1585 17.5618 25.1135C17.626 25.0694 17.6876 25.0139 17.7496 24.9448L19.8478 22.608C19.976 22.4652 20.1274 22.3547 20.2991 22.2779C20.4677 22.2024 20.6513 22.1637 20.8471 22.1632C21.0427 22.1627 21.2256 22.2 21.393 22.2739C21.5632 22.349 21.7148 22.4591 21.8453 22.6029C22.787 23.6406 23.8505 24.3703 25.0359 24.7918C26.2295 25.2163 27.5554 25.3344 29.0134 25.1462C29.3475 25.104 29.6525 25.3405 29.6948 25.6746C29.737 26.0086 29.5005 26.3136 29.1664 26.3559C28.5227 26.4389 27.9003 26.4688 27.2992 26.4456L31.1381 29.293ZM13.0407 36.2079C13.0333 36.1654 13.027 36.1223 13.0221 36.0792C12.4851 36.1686 11.9142 36.0604 11.4294 35.7351C11.404 35.72 11.3795 35.7028 11.356 35.6834C10.8783 35.3344 10.5809 34.8249 10.4856 34.2809C10.4734 34.2109 10.4645 34.1404 10.459 34.0698C9.92958 34.1393 9.37276 34.0187 8.90178 33.688L8.90065 33.6872C8.40307 33.3374 8.09377 32.817 7.99629 32.2601C7.91497 31.7955 7.98126 31.3042 8.20881 30.8645L5.8912 29.133L5.73243 29.408C5.56472 29.6998 5.19219 29.8004 4.90045 29.6327L4.89868 29.6317L4.89803 29.6327L0.514321 27.1018C0.222526 26.9328 0.123053 26.5593 0.292054 26.2675C0.298194 26.2568 0.304712 26.2463 0.311444 26.2361L7.09387 14.4887C7.26153 14.1969 7.63405 14.0963 7.92585 14.264L12.3095 16.7949C12.6013 16.9626 12.7019 17.3351 12.5342 17.6269L12.3518 17.9428L16.7063 19.8963L17.6646 18.6018C17.9577 18.2059 18.3306 17.909 18.7551 17.7236C19.1798 17.538 19.6509 17.466 20.1399 17.5198L25.8527 18.1491C26.1019 18.1765 26.3345 18.1675 26.5559 18.1211C26.7764 18.0748 26.992 17.9898 27.2081 17.865C27.2193 17.8586 27.2306 17.8525 27.2421 17.8468L27.8175 17.5146L27.7052 17.3201C27.5361 17.0283 27.6357 16.6547 27.9275 16.4857C27.9387 16.4793 27.95 16.4732 27.9615 16.4675L32.3136 13.9548C32.6053 13.7871 32.9779 13.8878 33.1455 14.1796L39.9474 25.9607C40.1147 26.2519 40.0148 26.6235 39.7244 26.7916L39.725 26.7926L35.3414 29.3236C35.0496 29.4926 34.676 29.393 34.507 29.1012C34.5006 29.09 34.4945 29.0787 34.4888 29.0673L34.3582 28.8411L32.2068 30.0833C32.6317 30.4166 32.9051 30.8839 33.0066 31.3862C33.1157 31.9261 33.0257 32.5062 32.7114 33.003C32.6959 33.031 32.6781 33.058 32.6579 33.0837C32.3217 33.5671 31.8209 33.8762 31.2795 33.9858C31.0521 34.0316 30.8175 34.0424 30.585 34.0154C30.5879 34.4398 30.4698 34.8685 30.2192 35.2461C29.8832 35.7523 29.3698 36.0755 28.8136 36.188C28.5861 36.2338 28.3515 36.2446 28.119 36.2182C28.122 36.642 28.0038 37.0707 27.7532 37.4483C27.4172 37.9545 26.9039 38.2776 26.3476 38.3902C26.1202 38.436 25.8856 38.4468 25.6531 38.4204C25.656 38.8291 25.5462 39.2422 25.3137 39.6101C25.2981 39.6381 25.2803 39.665 25.2601 39.6908C24.9239 40.1739 24.4232 40.4831 23.8817 40.5924C23.327 40.705 22.7299 40.6064 22.2242 40.2709L19.8236 38.6778L19.6176 38.9713C19.2678 39.4695 18.747 39.7792 18.1897 39.8772C17.6468 39.972 17.0677 39.8653 16.5769 39.5357C16.5515 39.5206 16.5268 39.5034 16.5034 39.4846C16.0258 39.135 15.7284 38.6256 15.6332 38.0816C15.6284 38.0541 15.6241 38.0267 15.6203 37.9992L15.5966 38.003C15.0539 38.0983 14.475 37.9917 13.9844 37.6621C13.959 37.647 13.9344 37.6297 13.9109 37.6104C13.4334 37.2614 13.136 36.7519 13.0407 36.2079ZM13.4706 34.4678C13.3151 34.6892 13.0819 34.8276 12.8317 34.8712C12.59 34.9132 12.334 34.868 12.1178 34.7258C12.1023 34.7134 12.0863 34.7021 12.0696 34.6919C11.8622 34.5362 11.7327 34.3111 11.6905 34.0704C11.6467 33.8199 11.697 33.5538 11.8522 33.3327L14.0443 30.2101C14.2 29.9885 14.4331 29.8505 14.6834 29.8067C14.9338 29.7629 15.1997 29.8131 15.4207 29.9681L15.4211 29.9684C15.6427 30.124 15.7808 30.3572 15.8246 30.6073C15.8685 30.8579 15.8181 31.124 15.6629 31.345L13.4706 34.4678ZM19.7278 32.12C19.6325 31.5759 19.3351 31.0667 18.8575 30.7174C18.834 30.6982 18.8094 30.6811 18.784 30.6659C18.2932 30.3363 17.7142 30.2298 17.1713 30.3248C17.1212 30.3336 17.0714 30.3441 17.0219 30.3563C16.9193 29.8278 16.625 29.3352 16.1595 28.9946C16.1363 28.9756 16.1117 28.9583 16.0858 28.9429C15.595 28.6132 15.0158 28.5068 14.473 28.6018C14.2752 28.6364 14.0821 28.6978 13.8995 28.7848C13.7511 28.3697 13.4779 27.9947 13.0908 27.723C12.5919 27.3728 11.9968 27.2582 11.4398 27.3557C10.8825 27.4533 10.3617 27.763 10.0119 28.2612L8.8958 29.851L6.50699 28.0663L11.7387 19.0047L15.9632 20.9001L13.9234 23.6556C13.7811 23.8477 13.6846 24.0564 13.6345 24.2783C13.5841 24.5019 13.5814 24.7314 13.6269 24.9634C13.6724 25.1952 13.7621 25.4071 13.8941 25.596C14.0239 25.7819 14.192 25.9384 14.3968 26.0628C14.9018 26.3695 15.4681 26.554 16.0489 26.607C16.6252 26.6597 17.2141 26.5844 17.77 26.3724C17.9445 26.3058 18.1022 26.2241 18.2503 26.1224C18.3997 26.0198 18.5332 25.9015 18.6581 25.7624L20.7562 23.4256C20.772 23.4081 20.7854 23.3968 20.7963 23.3919C20.8102 23.3857 20.8272 23.3825 20.8471 23.3824C20.867 23.3824 20.885 23.3859 20.9005 23.3927C20.9133 23.3984 20.9271 23.4093 20.9416 23.4252C21.992 24.5828 23.1856 25.4095 24.5223 25.9051L31.3427 30.964C31.358 30.9764 31.3739 30.988 31.3905 30.9991C31.617 31.1493 31.7613 31.378 31.8112 31.6253C31.8615 31.874 31.8175 32.1421 31.6668 32.3693L31.6666 32.3695C31.5164 32.596 31.2877 32.7403 31.0404 32.7903C30.7915 32.8406 30.5234 32.7964 30.2962 32.6457L25.9283 29.7473C25.647 29.5612 25.2681 29.6382 25.082 29.9194C24.8958 30.2007 24.9728 30.5796 25.2541 30.7658L28.9246 33.2013C29.151 33.3516 29.2953 33.5803 29.3453 33.8275C29.3957 34.0763 29.3515 34.3445 29.2008 34.5718C29.0505 34.7985 28.8218 34.9423 28.5745 34.9924C28.3256 35.043 28.0574 34.9989 27.8302 34.8481L24.7924 32.8322C24.5112 32.646 24.1323 32.7231 23.9461 33.0043C23.7599 33.2855 23.837 33.6645 24.1183 33.8506L26.4586 35.4039C26.6851 35.5541 26.8294 35.7825 26.8794 36.0297C26.9297 36.279 26.8856 36.5467 26.7348 36.774C26.5845 37.0007 26.3559 37.145 26.1086 37.1951C25.8597 37.2452 25.5915 37.2011 25.3643 37.0503L24.7005 36.6097C24.679 36.5935 24.6565 36.5785 24.6334 36.5655L23.6565 35.9171C23.3753 35.7308 22.9964 35.8078 22.8102 36.0894C22.6241 36.3706 22.7012 36.7492 22.9824 36.9355L23.9927 37.6061C24.2192 37.7563 24.3635 37.9847 24.4135 38.2324C24.4638 38.4812 24.4197 38.7489 24.2691 38.9762H24.2688C24.1186 39.2029 23.89 39.3472 23.6426 39.3973C23.3938 39.4474 23.1256 39.4032 22.8984 39.2524L20.5256 37.6782L21.3143 36.5548C21.6644 36.0561 21.779 35.4604 21.6816 34.9035C21.584 34.3461 21.2743 33.8255 20.776 33.4757L20.7741 33.4744C20.4404 33.2407 20.0637 33.1123 19.6841 33.0822C19.7701 32.7655 19.7832 32.4366 19.7278 32.12ZM18.6979 34.715C18.8533 34.4942 19.0862 34.3569 19.3363 34.3133C19.5776 34.2713 19.8334 34.3165 20.0495 34.4592C20.065 34.4711 20.0809 34.4824 20.0975 34.4926C20.3049 34.6483 20.4345 34.8734 20.4767 35.1141C20.5205 35.3645 20.4701 35.6306 20.315 35.8519L18.6183 38.2685C18.4627 38.4904 18.2295 38.6283 17.9792 38.6719C17.7288 38.716 17.4628 38.6654 17.2418 38.5103H17.2416C17.0199 38.3547 16.8819 38.1215 16.8381 37.8716C16.7942 37.6206 16.8446 37.3545 16.9998 37.1337L18.6979 34.715ZM16.0251 36.3959L18.3612 33.0681C18.5164 32.8471 18.5668 32.581 18.5229 32.3304C18.4808 32.0895 18.3512 31.8644 18.1438 31.7091C18.1272 31.6986 18.1111 31.6873 18.0957 31.6753C17.8795 31.5328 17.6234 31.4874 17.3817 31.5297C17.1315 31.5735 16.8983 31.7116 16.7428 31.9332L14.4921 35.1389C14.4793 35.1599 14.4649 35.1804 14.4493 35.1997L14.4073 35.2601C14.2522 35.4809 14.2017 35.7469 14.2456 35.9974C14.2894 36.2478 14.4275 36.481 14.6491 36.6366H14.6492C14.8702 36.7917 15.136 36.8418 15.3862 36.7982C15.6365 36.7546 15.8696 36.6167 16.0251 36.3959Z" fill="#22C55E"></path></svg> 