<svg width="60" height="50" viewBox="0 0 60 50" fill="none" xmlns="http://www.w3.org/2000/svg">
<path d="M1.70368 42.493L1.573 42.0057L1.03581 40.0031C1.00025 39.8715 0.991058 39.7341 1.00875 39.5989C1.02644 39.4637 1.07069 39.3334 1.13892 39.2153C1.20715 39.0973 1.298 38.9938 1.40631 38.911C1.51463 38.8282 1.63824 38.7676 1.77005 38.7327M11.6324 36.0902L15.1023 35.16L11.6324 36.0902ZM12.7171 46.5364L12.3977 46.6215L4.45394 48.7505C4.32231 48.7861 4.18495 48.7953 4.04976 48.7776C3.91457 48.7599 3.78417 48.7157 3.66612 48.6475C3.54807 48.5792 3.44467 48.4884 3.36186 48.3801C3.27904 48.2718 3.21845 48.1481 3.18355 48.0163L2.78323 46.522" fill="#F4F7F8"/>
<path d="M23.4588 20.4848C24.0315 20.4848 24.4958 20.0205 24.4958 19.4478C24.4958 18.875 24.0315 18.4107 23.4588 18.4107C22.886 18.4107 22.4217 18.875 22.4217 19.4478C22.4217 20.0205 22.886 20.4848 23.4588 20.4848Z" fill="#B6DCBA"/>
<path d="M32.2094 18.9293C34.7868 18.9293 36.8761 16.8399 36.8761 14.2625C36.8761 11.6852 34.7868 9.59583 32.2094 9.59583C29.6321 9.59583 27.5427 11.6852 27.5427 14.2625C27.5427 16.8399 29.6321 18.9293 32.2094 18.9293Z" fill="#F4F7F8"/>
<path d="M25.4686 29.953C25.6313 29.3391 25.6523 28.6963 25.5302 28.0731C25.408 27.4499 25.1458 26.8625 24.7634 26.3555C24.3847 25.8524 23.8945 25.4441 23.3312 25.1625C22.768 24.8808 22.1472 24.7337 21.5175 24.7325L21.4604 24.7428V29.928" fill="#B6DCBA"/>
<path d="M50.4697 42.3624C50.4869 42.5348 50.4963 42.7078 50.4978 42.8809C50.4952 43.734 50.3014 44.5757 49.9305 45.3439C50.0349 45.4227 50.1607 45.4679 50.2914 45.4736H56.9264C57.3858 45.4736 57.7571 45.011 57.7571 44.4365V43.3995C57.7571 42.8249 57.3858 42.3624 56.9275 42.3624H50.4697ZM49.8683 45.4736C49.5146 46.1662 49.023 46.7792 48.4237 47.2749V47.5487C48.4237 48.1222 48.7949 48.5857 49.2533 48.5857H55.8904C56.3488 48.5857 56.72 48.1222 56.72 47.5487V46.5116C56.72 45.9361 56.3488 45.4746 55.8904 45.4746H49.8683V45.4736ZM49.1869 39.2513C49.9177 40.1357 50.3648 41.22 50.4697 42.3624H54.6459C55.2205 42.3624 55.683 41.8999 55.683 41.3254V40.2883C55.683 39.7138 55.2205 39.2513 54.6459 39.2513H49.1869Z" fill="#6EC076"/>
<path d="M22.4975 43.7562V45.4736C22.4975 46.0481 22.035 46.5106 21.4605 46.5106H2.79359C2.21907 46.5106 1.75655 46.0481 1.75655 45.4736V37.1772C1.75655 36.6027 2.21907 36.1401 2.79359 36.1401H15.0826" fill="#6EC076"/>
<path d="M44.2288 37.0039C44.2319 36.952 44.2693 36.473 44.2713 36.419C44.2855 36.0829 44.2785 35.7463 44.2506 35.4111C43.8565 30.7071 39.475 26.8388 33.6634 25.9946L30.4776 25.8442C29.3296 25.9022 28.1912 26.0841 27.0822 26.3867L23.5065 27.8997C21.5672 29.0581 20.0262 30.6552 19.1436 32.5664H18.3555C16.6319 32.5664 15.2444 33.955 15.2444 35.6776V37.7517C15.2444 39.4763 16.6319 40.8628 18.3555 40.8628H19.8665H19.8395C20.8496 42.3873 22.2942 43.6307 23.9939 44.5526V48.4821H28.1421V46.0429C30.3541 46.4851 32.6341 46.4611 34.8363 45.9724C35.3911 45.8479 35.921 45.6902 36.4385 45.515V48.4809H40.5867V46.8788" fill="#B6DCBA"/>
<path d="M44.794 48.5848C47.9441 48.5848 50.4978 46.0311 50.4978 42.881C50.4978 39.7309 47.9441 37.1772 44.794 37.1772C41.6439 37.1772 39.0902 39.7309 39.0902 42.881C39.0902 46.0311 41.6439 48.5848 44.794 48.5848Z" fill="#B6DCBA"/>
<path fill-rule="evenodd" clip-rule="evenodd" d="M42.2056 38.743V39.7801H43.2707C44.5234 39.7801 44.989 40.5433 44.989 41.3253C44.989 42.1083 44.5224 42.8705 43.2707 42.8705H42.2056V43.9075H43.2707C45.0025 43.9075 46.0261 42.6081 46.0261 41.3253C46.0261 40.0435 45.0015 38.743 43.2707 38.743H42.2056Z" fill="#31944D"/>
<path fill-rule="evenodd" clip-rule="evenodd" d="M42.2284 40.8068V41.8439H47.3825V40.8068H42.2284ZM42.2284 38.7327V39.7698H47.3825V38.7327H42.2284ZM42.9336 42.8674L42.2056 43.6068L45.6756 47.0281L46.4046 46.2907L42.9326 42.8674H42.9336Z" fill="#31944D"/>
<path d="M44.794 48.5848C47.9441 48.5848 50.4978 46.0311 50.4978 42.881C50.4978 39.7309 47.9441 37.1772 44.794 37.1772C41.6439 37.1772 39.0902 39.7309 39.0902 42.881C39.0902 46.0311 41.6439 48.5848 44.794 48.5848Z" stroke="#31944D" stroke-linecap="round" stroke-linejoin="round"/>
<path d="M23.5522 25.2821C22.9344 24.9225 22.2323 24.7329 21.5175 24.7325L21.4604 24.7428V29.057" stroke="#31944D" stroke-linecap="round" stroke-linejoin="round"/>
<path d="M1.70368 42.493L1.573 42.0057L1.03581 40.0031C1.00025 39.8715 0.991058 39.7341 1.00875 39.5989C1.02644 39.4637 1.07069 39.3334 1.13892 39.2153C1.20715 39.0973 1.298 38.9938 1.40631 38.911C1.51463 38.8282 1.63824 38.7676 1.77005 38.7327M11.6324 36.0902L15.1023 35.16M12.7171 46.5364L12.3977 46.6215L4.45394 48.7505C4.32231 48.7861 4.18495 48.7953 4.04976 48.7776C3.91457 48.7599 3.78417 48.7157 3.66612 48.6475C3.54807 48.5792 3.44467 48.4884 3.36185 48.3801C3.27904 48.2718 3.21845 48.1481 3.18355 48.0163L2.78323 46.522M50.4698 42.3634C50.487 42.5357 50.4963 42.7088 50.4978 42.8819C50.4951 43.7347 50.3013 44.576 49.9305 45.3439C50.0349 45.4227 50.1608 45.4679 50.2914 45.4735H56.9265C57.3859 45.4735 57.7571 45.011 57.7571 44.4365V43.3994C57.7571 42.8249 57.3859 42.3624 56.9275 42.3624H50.4698V42.3634ZM49.8683 45.4746C49.5145 46.1668 49.0229 46.7795 48.4237 47.2748V47.5487C48.4237 48.1221 48.795 48.5857 49.2533 48.5857H55.8905C56.3488 48.5857 56.7201 48.1221 56.7201 47.5487V46.5116C56.7201 45.936 56.3488 45.4746 55.8905 45.4746H49.8683ZM49.187 39.2523C49.9177 40.1367 50.3648 41.221 50.4698 42.3634H54.646C55.2205 42.3634 55.683 41.8999 55.683 41.3264V40.2893C55.683 39.7138 55.2205 39.2523 54.646 39.2523H49.187Z" stroke="#31944D" stroke-linecap="round" stroke-linejoin="round"/>
<path d="M27.5427 29.953C27.7054 29.3391 27.7264 28.6963 27.6042 28.0731C27.4821 27.4499 27.2199 26.8625 26.8375 26.3555C26.4588 25.8524 25.9685 25.4441 25.4053 25.1625C24.8421 24.8808 24.2212 24.7337 23.5915 24.7325L23.5345 24.7428V29.928" fill="#B6DCBA"/>
<path d="M20.6215 41.289C20.4794 41.6883 19.8395 42.3634 19.3894 42.3634C18.816 42.3634 18.6086 41.5089 18.6086 40.9375L19.6145 41.1137L20.6215 41.289Z" fill="#B6DCBA"/>
<path d="M23.5065 27.8997C21.5672 29.0581 20.0262 30.6552 19.1436 32.5664H18.3555C16.6319 32.5664 15.2444 33.955 15.2444 35.6776V37.7517C15.2444 39.4763 16.6319 40.8628 18.3555 40.8628H19.8665H19.8395C20.8496 42.3873 22.2942 43.6307 23.9939 44.5526V48.4821H28.1421V46.0429C30.3541 46.4851 32.6341 46.4611 34.8363 45.9724C35.3911 45.8479 35.921 45.6902 36.4385 45.515V48.4809H40.5867V46.8788M44.2288 37.0039C44.2319 36.952 44.2692 36.473 44.2703 36.419C44.2848 36.0829 44.2782 35.7464 44.2506 35.4111C43.8565 30.7071 39.475 26.8388 33.6623 25.9946M30.4776 25.8442C29.3296 25.9022 28.1912 26.0841 27.0822 26.3867" stroke="#31944D" stroke-linecap="round" stroke-linejoin="round"/>
<path d="M43.9229 33.56C48.2795 30.8865 45.325 26.5257 44.0027 29.2604C43.2312 31.3687 47.342 32.0656 47.5567 26.1959" stroke="#31944D" stroke-linecap="round" stroke-linejoin="round"/>
<path d="M27.5427 29.953C27.7054 29.3391 27.7264 28.6963 27.6043 28.0731C27.4821 27.4499 27.2199 26.8625 26.8375 26.3555C26.4588 25.8524 25.9685 25.4441 25.4053 25.1625C24.8421 24.8808 24.2212 24.7337 23.5915 24.7325L23.5345 24.7428V29.928" stroke="#31944D" stroke-linecap="round" stroke-linejoin="round"/>
<path d="M22.4591 35.1032C23.0107 35.1032 23.4578 34.656 23.4578 34.1045C23.4578 33.5529 23.0107 33.1058 22.4591 33.1058C21.9076 33.1058 21.4604 33.5529 21.4604 34.1045C21.4604 34.656 21.9076 35.1032 22.4591 35.1032Z" fill="#F4F7F8"/>
<path d="M22.4591 35.1032C23.0107 35.1032 23.4578 34.656 23.4578 34.1045C23.4578 33.5529 23.0107 33.1058 22.4591 33.1058C21.9076 33.1058 21.4604 33.5529 21.4604 34.1045C21.4604 34.656 21.9076 35.1032 22.4591 35.1032Z" stroke="#31944D" stroke-linecap="round" stroke-linejoin="round"/>
<path d="M32.2094 18.9293C34.7868 18.9293 36.8761 16.8399 36.8761 14.2625C36.8761 11.6852 34.7868 9.59583 32.2094 9.59583C29.6321 9.59583 27.5427 11.6852 27.5427 14.2625C27.5427 16.8399 29.6321 18.9293 32.2094 18.9293Z" stroke="#31944D" stroke-linecap="round" stroke-linejoin="round"/>
<path d="M29.0983 29.9178H35.4492" stroke="#31944D"/>
<path d="M23.4588 20.4848C24.0315 20.4848 24.4958 20.0205 24.4958 19.4478C24.4958 18.875 24.0315 18.4107 23.4588 18.4107C22.886 18.4107 22.4217 18.875 22.4217 19.4478C22.4217 20.0205 22.886 20.4848 23.4588 20.4848Z" stroke="#31944D" stroke-linecap="round" stroke-linejoin="round"/>
<path d="M38.496 18.4106H41.6072M40.0516 16.855V19.9662" stroke="#31944D"/>
<path d="M32.2094 14.7737V11.6626M32.2167 14.781H34.2908" stroke="#31944D" stroke-linecap="round" stroke-linejoin="round"/>
<path d="M32.2095 15.2996C32.4958 15.2996 32.728 15.0674 32.728 14.781C32.728 14.4947 32.4958 14.2625 32.2095 14.2625C31.9231 14.2625 31.6909 14.4947 31.6909 14.781C31.6909 15.0674 31.9231 15.2996 32.2095 15.2996Z" fill="#546E7A" stroke="#31944D" stroke-linecap="round" stroke-linejoin="round"/>
<path d="M30.6539 8.04022V2.85498M33.765 8.04022V2.85498M28.5839 9.07727V4.92907M35.8391 9.07727V4.92907M28.5839 3.89203V2.85498M30.6539 1.81793V0.780884M33.765 1.81793V0.780884M35.8391 3.89203V2.85498" stroke="#31944D"/>
<path d="M22.4975 43.7562V45.4736C22.4975 46.0481 22.035 46.5106 21.4605 46.5106H2.79359C2.21907 46.5106 1.75655 46.0481 1.75655 45.4736V37.1772C1.75655 36.6027 2.21907 36.1401 2.79359 36.1401H15.0826" stroke="#31944D" stroke-linecap="round" stroke-linejoin="round"/>
<path d="M9.01592 41.3254C9.01592 39.6091 10.4159 38.2143 12.1364 38.2143C12.5445 38.2143 12.9486 38.2948 13.3256 38.4513C13.7025 38.6077 14.0449 38.837 14.333 39.126C14.6212 39.415 14.8494 39.7581 15.0048 40.1355C15.1601 40.5129 15.2394 40.9173 15.2382 41.3254C15.2382 43.0428 13.8579 44.4366 12.1364 44.4366C11.3101 44.4374 10.5172 44.1102 9.93192 43.5269C9.34664 42.9436 9.0168 42.1518 9.01488 41.3254H9.01592Z" fill="#B6DCBA"/>
<path d="M9.01592 41.3254C9.01592 39.6091 10.4159 38.2143 12.1364 38.2143C12.5445 38.2143 12.9486 38.2948 13.3256 38.4513C13.7025 38.6077 14.0449 38.837 14.333 39.126C14.6212 39.415 14.8494 39.7581 15.0048 40.1355C15.1601 40.5129 15.2394 40.9173 15.2382 41.3254C15.2382 43.0428 13.8579 44.4366 12.1364 44.4366C11.3101 44.4374 10.5172 44.1102 9.93192 43.5269C9.34664 42.9436 9.0168 42.1518 9.01488 41.3254H9.01592Z" stroke="#31944D" stroke-miterlimit="34.178" stroke-linecap="round" stroke-linejoin="round"/>
<path d="M3.8306 41.3254C3.8306 40.753 4.29726 40.2884 4.87075 40.2884C5.44423 40.2884 5.90469 40.753 5.90469 41.3254C5.90469 41.8979 5.44423 42.3625 4.87075 42.3625C4.59533 42.3628 4.33107 42.2536 4.13603 42.0592C3.941 41.8647 3.83115 41.6009 3.8306 41.3254Z" fill="#B6DCBA"/>
<path d="M12.13 43.2251C12.1592 43.2248 12.1881 43.2189 12.2149 43.2074C12.2418 43.1959 12.266 43.1792 12.2864 43.1583C12.3067 43.1373 12.3227 43.1126 12.3335 43.0855C12.3442 43.0583 12.3494 43.0293 12.3489 43.0001V42.8052C12.7844 42.7139 13.1266 42.3613 13.1266 41.9174C13.1266 41.4009 12.6631 41.0048 12.1269 41.0048C11.8023 41.0048 11.5721 40.7839 11.5721 40.535C11.5721 40.2861 11.8023 40.0684 12.1269 40.0684C12.4515 40.0684 12.6818 40.2861 12.6818 40.535C12.6776 40.8357 13.1298 40.8357 13.1256 40.535C13.1256 40.0984 12.7782 39.7862 12.3489 39.6929V39.4502C12.353 39.1495 11.9009 39.1495 11.905 39.4502V39.694C11.4767 39.7874 11.1272 40.0984 11.1272 40.534C11.1272 41.0038 11.4601 41.4466 12.0958 41.4466H12.128C12.4526 41.4466 12.6828 41.6675 12.6828 41.9154C12.6828 42.1611 12.4578 42.3758 12.1394 42.382L12.1145 42.381C11.7972 42.3706 11.5732 42.1601 11.5732 41.9154C11.5773 41.6146 11.1241 41.6146 11.1283 41.9154C11.1283 42.3592 11.4705 42.7118 11.906 42.804V42.998C11.9029 43.1235 12.0263 43.2262 12.1518 43.2241L12.13 43.2251Z" fill="#31944D" stroke="#31944D" stroke-width="0.25" stroke-linecap="round" stroke-linejoin="round"/>
<path d="M12.3733 12.0406C12.4025 12.0403 12.4313 12.0343 12.4582 12.0229C12.485 12.0114 12.5093 11.9947 12.5296 11.9737C12.55 11.9528 12.566 11.9281 12.5767 11.901C12.5874 11.8738 12.5927 11.8448 12.5921 11.8156V11.6207C13.0277 11.5294 13.3699 11.1767 13.3699 10.7329C13.3699 10.2164 12.9063 9.82028 12.3702 9.82028C12.0456 9.82028 11.8154 9.59938 11.8154 9.35049C11.8154 9.1016 12.0456 8.88387 12.3702 8.88387C12.6948 8.88387 12.925 9.1016 12.925 9.35049C12.9209 9.65124 13.373 9.65124 13.3689 9.35049C13.3689 8.9139 13.0214 8.60173 12.5921 8.5084V8.26572C12.5963 7.96498 12.1441 7.96498 12.1483 8.26572V8.50954C11.72 8.60287 11.3705 8.91392 11.3705 9.34948C11.3705 9.81926 11.7034 10.2621 12.3391 10.2621H12.3712C12.6958 10.2621 12.9261 10.483 12.9261 10.7309C12.9261 10.9766 12.701 11.1913 12.3826 11.1975L12.3577 11.1965C12.0404 11.1861 11.8164 10.9756 11.8164 10.7309C11.8206 10.4301 11.3673 10.4301 11.3715 10.7309C11.3715 11.1747 11.7137 11.5272 12.1493 11.6195V11.8135C12.1462 11.939 12.2696 12.0416 12.3951 12.0396L12.3733 12.0406Z" fill="#31944D" stroke="#31944D" stroke-width="0.25" stroke-linecap="round" stroke-linejoin="round"/>
<path d="M58.0034 28.6333C58.0326 28.633 58.0615 28.6271 58.0883 28.6156C58.1151 28.6041 58.1394 28.5874 58.1598 28.5665C58.1801 28.5455 58.1961 28.5208 58.2068 28.4937C58.2175 28.4665 58.2228 28.4375 58.2222 28.4083V28.2134C58.6578 28.1221 59 27.7695 59 27.3256C59 26.8091 58.5365 26.413 58.0003 26.413C57.6757 26.413 57.4455 26.1921 57.4455 25.9432C57.4455 25.6943 57.6757 25.4766 58.0003 25.4766C58.3249 25.4766 58.5551 25.6943 58.5551 25.9432C58.551 26.2439 59.0032 26.2439 58.999 25.9432C58.999 25.5066 58.6516 25.1944 58.2222 25.1011V24.8584C58.2264 24.5577 57.7742 24.5577 57.7784 24.8584V25.1022C57.3501 25.1956 57.0006 25.5066 57.0006 25.9422C57.0006 26.412 57.3335 26.8548 57.9692 26.8548H58.0014C58.326 26.8548 58.5562 27.0757 58.5562 27.3236C58.5562 27.5694 58.3311 27.784 58.0128 27.7902L57.9879 27.7892C57.6705 27.7788 57.4465 27.5683 57.4465 27.3236C57.4507 27.0228 56.9975 27.0228 57.0016 27.3236C57.0016 27.7674 57.3438 28.12 57.7794 28.2123V28.4062C57.7763 28.5317 57.8997 28.6344 58.0252 28.6323L58.0034 28.6333Z" fill="#31944D" stroke="#31944D" stroke-width="0.25" stroke-linecap="round" stroke-linejoin="round"/>
<path d="M53.8552 13.0777C53.8844 13.0774 53.9132 13.0715 53.9401 13.06C53.9669 13.0485 53.9912 13.0318 54.0115 13.0109C54.0319 12.9899 54.0479 12.9652 54.0586 12.9381C54.0693 12.9109 54.0745 12.8819 54.074 12.8527V12.6578C54.5096 12.5665 54.8518 12.2139 54.8518 11.77C54.8518 11.2535 54.3882 10.8574 53.8521 10.8574C53.5275 10.8574 53.2972 10.6365 53.2972 10.3876C53.2972 10.1387 53.5275 9.92098 53.8521 9.92098C54.1767 9.92098 54.4069 10.1387 54.4069 10.3876C54.4028 10.6883 54.8549 10.6883 54.8508 10.3876C54.8508 9.951 54.5033 9.63884 54.074 9.54551V9.30283C54.0781 9.00208 53.626 9.00208 53.6302 9.30283V9.54665C53.2019 9.63998 52.8524 9.95103 52.8524 10.3866C52.8524 10.8564 53.1853 11.2992 53.821 11.2992H53.8531C54.1777 11.2992 54.4079 11.5201 54.4079 11.768C54.4079 12.0137 54.1829 12.2284 53.8645 12.2346L53.8396 12.2336C53.5223 12.2232 53.2983 12.0127 53.2983 11.768C53.3024 11.4672 52.8492 11.4672 52.8534 11.768C52.8534 12.2118 53.1956 12.5644 53.6312 12.6566V12.8506C53.6281 12.9761 53.7515 13.0788 53.8769 13.0767L53.8552 13.0777Z" fill="#31944D" stroke="#31944D" stroke-width="0.25" stroke-linecap="round" stroke-linejoin="round"/>
<path d="M4.07693 29.6704C4.10612 29.6701 4.13498 29.6642 4.16181 29.6527C4.18865 29.6412 4.21293 29.6245 4.23327 29.6036C4.25362 29.5826 4.26961 29.5579 4.28033 29.5308C4.29106 29.5036 4.2963 29.4746 4.29575 29.4455V29.2505C4.73131 29.1592 5.07353 28.8066 5.07353 28.3627C5.07353 27.8463 4.60998 27.4501 4.07383 27.4501C3.74923 27.4501 3.51901 27.2292 3.51901 26.9803C3.51901 26.7314 3.74923 26.5137 4.07383 26.5137C4.39843 26.5137 4.62865 26.7314 4.62865 26.9803C4.62451 27.2811 5.07667 27.2811 5.07252 26.9803C5.07252 26.5437 4.72508 26.2316 4.29575 26.1382V25.8955C4.2999 25.5948 3.84776 25.5948 3.85191 25.8955V26.1394C3.42361 26.2327 3.07413 26.5437 3.07413 26.9793C3.07413 27.4491 3.40701 27.8919 4.04272 27.8919H4.07487C4.39947 27.8919 4.6297 28.1128 4.6297 28.3607C4.6297 28.6065 4.40464 28.8211 4.08627 28.8273L4.06139 28.8263C3.74406 28.8159 3.52005 28.6054 3.52005 28.3607C3.5242 28.0599 3.07099 28.0599 3.07514 28.3607C3.07514 28.8045 3.41737 29.1571 3.85293 29.2494V29.4433C3.84981 29.5688 3.97322 29.6715 4.09871 29.6694L4.07693 29.6704Z" fill="#31944D" stroke="#31944D" stroke-width="0.25" stroke-linecap="round" stroke-linejoin="round"/>
<path d="M20.3622 41.678C20.2904 41.8784 20.1583 42.0517 19.9842 42.1742C19.8101 42.2968 19.6023 42.3626 19.3894 42.3625C19.114 42.3628 18.8497 42.2536 18.6547 42.0592C18.4597 41.8647 18.3498 41.6009 18.3493 41.3254M3.8306 41.3254C3.8306 40.753 4.29726 40.2884 4.87075 40.2884C5.44423 40.2884 5.90469 40.753 5.90469 41.3254C5.90469 41.8979 5.44423 42.3625 4.87075 42.3625C4.59533 42.3628 4.33107 42.2536 4.13603 42.0592C3.941 41.8647 3.83115 41.6009 3.8306 41.3254Z" stroke="#31944D" stroke-miterlimit="34.178" stroke-linecap="round" stroke-linejoin="round"/>
<path d="M15.4892 38.2143H17.8308" stroke="#31944D" stroke-linecap="round" stroke-linejoin="round"/>
<path d="M44.794 48.5848C47.9441 48.5848 50.4978 46.0311 50.4978 42.881C50.4978 39.7309 47.9441 37.1772 44.794 37.1772C41.6439 37.1772 39.0902 39.7309 39.0902 42.881C39.0902 46.0311 41.6439 48.5848 44.794 48.5848Z" stroke="#31944D" stroke-linecap="round" stroke-linejoin="round"/>
<path d="M44.794 48.5848C47.9441 48.5848 50.4978 46.0311 50.4978 42.881C50.4978 39.7309 47.9441 37.1772 44.794 37.1772C41.6439 37.1772 39.0902 39.7309 39.0902 42.881C39.0902 46.0311 41.6439 48.5848 44.794 48.5848Z" stroke="#31944D" stroke-linecap="round" stroke-linejoin="round"/>
</svg>
