<svg width="60" height="68" viewBox="0 0 60 68" fill="none" xmlns="http://www.w3.org/2000/svg">
<path d="M24.2474 29.4727H35.7525C36.3823 29.4713 37.0062 29.5943 37.5883 29.8347C38.1705 30.0751 38.6994 30.4281 39.1447 30.8734C39.5901 31.3188 39.9431 31.8476 40.1835 32.4298C40.4238 33.0119 40.5468 33.6358 40.5454 34.2656V49.5091H19.4545V34.2656C19.4531 33.6358 19.5761 33.0119 19.8165 32.4298C20.0569 31.8476 20.4099 31.3188 20.8552 30.8734C21.3005 30.4281 21.8295 30.0751 22.4116 29.8347C22.9937 29.5943 23.6176 29.4713 24.2474 29.4727Z" fill="#B6DCBA"/>
<path d="M29.9999 28.4186C33.4944 28.4186 36.3272 25.5858 36.3272 22.0913C36.3272 18.5969 33.4944 15.764 29.9999 15.764C26.5054 15.764 23.6726 18.5969 23.6726 22.0913C23.6726 25.5858 26.5054 28.4186 29.9999 28.4186Z" fill="#F4F7F8"/>
<path d="M29.9999 4.16364C30.8735 4.16364 31.5817 3.45543 31.5817 2.58182C31.5817 1.7082 30.8735 1 29.9999 1C29.1263 1 28.4181 1.7082 28.4181 2.58182C28.4181 3.45543 29.1263 4.16364 29.9999 4.16364Z" fill="#B6DCBA"/>
<path d="M29.9999 67.4365C30.8735 67.4365 31.5817 66.7283 31.5817 65.8546C31.5817 64.981 30.8735 64.2728 29.9999 64.2728C29.1263 64.2728 28.4181 64.981 28.4181 65.8546C28.4181 66.7283 29.1263 67.4365 29.9999 67.4365Z" fill="#B6DCBA"/>
<path d="M57.4182 17.8726C56.5446 17.8726 55.8364 18.5808 55.8364 19.4544C55.8364 20.328 56.5446 21.0362 57.4182 21.0362C58.2918 21.0362 59 20.328 59 19.4544C59 18.5808 58.2918 17.8726 57.4182 17.8726Z" fill="#B6DCBA"/>
<path d="M2.58175 17.8726C1.70814 17.8726 0.999935 18.5808 0.999935 19.4544C0.999935 20.328 1.70814 21.0362 2.58175 21.0362C3.45537 21.0362 4.16357 20.328 4.16357 19.4544C4.16357 18.5808 3.45537 17.8726 2.58175 17.8726Z" fill="#B6DCBA"/>
<path d="M57.4182 47.4C56.5446 47.4 55.8364 48.1082 55.8364 48.9818C55.8364 49.8554 56.5446 50.5636 57.4182 50.5636C58.2918 50.5636 59 49.8554 59 48.9818C59 48.1082 58.2918 47.4 57.4182 47.4Z" fill="#B6DCBA"/>
<path d="M2.58175 47.4C1.70814 47.4 0.999935 48.1082 0.999935 48.9818C0.999935 49.8554 1.70814 50.5636 2.58175 50.5636C3.45537 50.5636 4.16357 49.8554 4.16357 48.9818C4.16357 48.1082 3.45537 47.4 2.58175 47.4Z" fill="#B6DCBA"/>
<path fill-rule="evenodd" clip-rule="evenodd" d="M3.93678 20.1843L20.1528 30.6413L3.93678 20.1843ZM40.6737 41.1298L56.1147 48.2796L40.6737 41.1298ZM56.0557 20.1885L38.8496 30.1853L56.0557 20.1885ZM19.2407 40.2178L3.80606 48.3228L19.2407 40.2178Z" fill="#546E7A"/>
<path d="M3.93678 20.1843L20.1528 30.6413M40.6737 41.1298L56.1147 48.2796M56.0557 20.1885L38.8496 30.1853M19.2407 40.2178L3.80606 48.3228" stroke="#31944D" stroke-dasharray="1 1"/>
<path d="M30 50.0366V64.3784" stroke="#31944D" stroke-dasharray="1 1"/>
<path fill-rule="evenodd" clip-rule="evenodd" d="M2.58173 47.4003V21.0693V47.4003ZM3.94207 18.6174L28.6269 3.42781L3.94207 18.6174ZM31.2801 3.36975L55.9934 18.5774L31.2801 3.36975ZM57.4181 21.0028V47.4657V21.0028ZM56.0314 49.8352L31.3719 65.0101L56.0314 49.8352ZM28.6227 65.0101L3.87249 49.7793L28.6227 65.0101Z" fill="#546E7A"/>
<path d="M2.58173 47.4003V21.0693M3.94207 18.6174L28.6269 3.42781M31.2801 3.36975L55.9934 18.5774M57.4181 21.0028V47.4657M56.0314 49.8352L31.3719 65.0101M28.6227 65.0101L3.87249 49.7793" stroke="#31944D" stroke-dasharray="1 1"/>
<path d="M29.9999 4.16364C30.8735 4.16364 31.5817 3.45543 31.5817 2.58182C31.5817 1.7082 30.8735 1 29.9999 1C29.1263 1 28.4181 1.7082 28.4181 2.58182C28.4181 3.45543 29.1263 4.16364 29.9999 4.16364Z" stroke="#31944D" stroke-linecap="round" stroke-linejoin="round"/>
<path d="M29.9999 67.4365C30.8735 67.4365 31.5817 66.7283 31.5817 65.8546C31.5817 64.981 30.8735 64.2728 29.9999 64.2728C29.1263 64.2728 28.4181 64.981 28.4181 65.8546C28.4181 66.7283 29.1263 67.4365 29.9999 67.4365Z" stroke="#31944D" stroke-linecap="round" stroke-linejoin="round"/>
<path d="M57.4182 17.8726C56.5446 17.8726 55.8364 18.5808 55.8364 19.4544C55.8364 20.328 56.5446 21.0362 57.4182 21.0362C58.2918 21.0362 59 20.328 59 19.4544C59 18.5808 58.2918 17.8726 57.4182 17.8726Z" stroke="#31944D" stroke-linecap="round" stroke-linejoin="round"/>
<path d="M2.58175 17.8726C1.70814 17.8726 0.999935 18.5808 0.999935 19.4544C0.999935 20.328 1.70814 21.0362 2.58175 21.0362C3.45537 21.0362 4.16357 20.328 4.16357 19.4544C4.16357 18.5808 3.45537 17.8726 2.58175 17.8726Z" stroke="#31944D" stroke-linecap="round" stroke-linejoin="round"/>
<path d="M57.4182 47.4C56.5446 47.4 55.8364 48.1082 55.8364 48.9818C55.8364 49.8554 56.5446 50.5636 57.4182 50.5636C58.2918 50.5636 59 49.8554 59 48.9818C59 48.1082 58.2918 47.4 57.4182 47.4Z" stroke="#31944D" stroke-linecap="round" stroke-linejoin="round"/>
<path d="M2.58175 47.4C1.70814 47.4 0.999935 48.1082 0.999935 48.9818C0.999935 49.8554 1.70814 50.5636 2.58175 50.5636C3.45537 50.5636 4.16357 49.8554 4.16357 48.9818C4.16357 48.1082 3.45537 47.4 2.58175 47.4Z" stroke="#31944D" stroke-linecap="round" stroke-linejoin="round"/>
<path d="M39.145 30.8731C39.5905 31.3184 39.9436 31.8472 40.1839 32.4294C40.4242 33.0117 40.5471 33.6356 40.5454 34.2655V49.5091H19.4545L39.145 30.8731Z" fill="#6EC076"/>
<path d="M29.9999 28.4186C33.4944 28.4186 36.3272 25.5858 36.3272 22.0913C36.3272 18.5969 33.4944 15.764 29.9999 15.764C26.5054 15.764 23.6726 18.5969 23.6726 22.0913C23.6726 25.5858 26.5054 28.4186 29.9999 28.4186Z" stroke="#31944D"/>
<path d="M24.7272 36.3273H23.6726V50.0364H24.7272V36.3273Z" fill="#31944D"/>
<path d="M36.3273 36.3273H35.2728V50.0364H36.3273V36.3273Z" fill="#31944D"/>
<path d="M30 4.1637V16.2646" stroke="#31944D" stroke-dasharray="1 1"/>
<path d="M24.2474 29.4727H35.7525C36.3823 29.4713 37.0062 29.5943 37.5883 29.8347C38.1705 30.0751 38.6994 30.4281 39.1447 30.8734C39.5901 31.3188 39.9431 31.8476 40.1835 32.4298C40.4238 33.0119 40.5468 33.6358 40.5454 34.2656V49.5091H19.4545V34.2656C19.4531 33.6358 19.5761 33.0119 19.8165 32.4298C20.0569 31.8476 20.4099 31.3188 20.8552 30.8734C21.3005 30.4281 21.8295 30.0751 22.4116 29.8347C22.9937 29.5943 23.6176 29.4713 24.2474 29.4727V29.4727Z" stroke="#31944D"/>
</svg>
