<svg width="60" height="62" viewBox="0 0 60 62" fill="none" xmlns="http://www.w3.org/2000/svg">
<path d="M11.0865 3.01851C11.6439 3.01851 12.0957 2.56665 12.0957 2.00925C12.0957 1.45186 11.6439 1 11.0865 1C10.5291 1 10.0772 1.45186 10.0772 2.00925C10.0772 2.56665 10.5291 3.01851 11.0865 3.01851Z" fill="#ABDBB0"/>
<path d="M44.0885 30.8097C43.8098 31.2924 43.1926 31.4578 42.7099 31.1791C42.2272 30.9004 42.0618 30.2831 42.3405 29.8004C42.6192 29.3177 43.2364 29.1523 43.7191 29.431C44.2019 29.7097 44.3672 30.327 44.0885 30.8097Z" fill="#ABDBB0"/>
<path fill-rule="evenodd" clip-rule="evenodd" d="M34.6889 34.71L46.6344 40.6263C49.0344 41.8142 51.4566 42.8245 51.4566 45.5556V60.546H8.05873V45.5556C8.05873 42.8245 10.9513 41.6124 12.8809 40.6263C14.8086 39.6403 24.8255 34.71 24.8255 34.71L29.7577 36.8063L34.6889 34.71Z" fill="#B6DCBA"/>
<path fill-rule="evenodd" clip-rule="evenodd" d="M34.6889 34.71L46.6345 40.6263C49.0345 41.8142 51.4567 42.8245 51.4567 45.5556V60.546H29.7577V36.8063L34.6889 34.71Z" fill="#6EC076"/>
<path fill-rule="evenodd" clip-rule="evenodd" d="M24.7114 34.7089L29.7576 36.9475L25.7206 40.8655L21.7361 36.2481" fill="#F4F8F4"/>
<path d="M24.7114 34.709V30.1038H34.804L24.7114 34.709Z" fill="#F3F3F3"/>
<path d="M37.8317 12.9526V23.6073C37.8317 28.0803 34.2307 31.6813 29.7577 31.6813C25.2846 31.6813 21.6836 28.0803 21.6836 23.6073V12.9526" fill="#F4F8F4"/>
<path d="M37.8317 12.9526V15.839L21.6836 23.1561V12.9526" fill="#F3F3F3"/>
<path d="M20.0133 18.433C19.7933 18.756 19.6651 19.1486 19.6651 19.5705V21.589C19.6651 22.7072 20.5654 23.6075 21.6837 23.6075L21.5847 21.4214L20.0133 18.433ZM37.8317 23.6075C38.95 23.6075 39.8502 22.7072 39.8502 21.589V19.5705C39.85 19.3002 39.7961 19.0326 39.6918 18.7832C39.591 18.5437 39.4447 18.326 39.2608 18.1423L37.868 20.8744L37.8317 23.6075Z" fill="#F4F8F4"/>
<path d="M33.2901 21.6897C33.5688 21.6897 33.7947 21.4637 33.7947 21.185C33.7947 20.9063 33.5688 20.6804 33.2901 20.6804C33.0114 20.6804 32.7855 20.9063 32.7855 21.185C32.7855 21.4637 33.0114 21.6897 33.2901 21.6897Z" fill="#31944D"/>
<path d="M26.2253 21.6897C26.504 21.6897 26.73 21.4637 26.73 21.185C26.73 20.9063 26.504 20.6804 26.2253 20.6804C25.9466 20.6804 25.7207 20.9063 25.7207 21.185C25.7207 21.4637 25.9466 21.6897 26.2253 21.6897Z" fill="#31944D"/>
<path fill-rule="evenodd" clip-rule="evenodd" d="M34.804 34.7089L29.7577 36.9475L33.7947 40.8655L37.7641 36.2652" fill="#F4F8F4"/>
<path d="M31.432 40.3689L33.29 54.0453L29.7576 58.9311L26.2252 54.0453L28.0822 40.372" fill="#ABDBB0"/>
<path d="M34.6889 34.71L46.6344 40.6263C49.0344 41.8142 51.4566 42.8245 51.4566 45.5556V60.546H8.05873V45.5556C8.05873 42.8245 10.9513 41.6124 12.8809 40.6263C14.8086 39.6403 24.8255 34.71 24.8255 34.71" stroke="#31944D"/>
<path d="M29.7577 22.2026V24.2181M24.2108 20.285C24.4149 19.9451 24.7085 19.6628 25.0621 19.4665C25.4157 19.2702 25.8169 19.1668 26.2253 19.1667C26.6336 19.1668 27.0348 19.2702 27.3884 19.4665C27.742 19.6628 28.0356 19.9451 28.2397 20.285M31.2756 20.285C31.4797 19.9451 31.7733 19.6628 32.1269 19.4665C32.4805 19.2702 32.8817 19.1668 33.29 19.1667C33.6984 19.1668 34.0996 19.2702 34.4532 19.4665C34.8068 19.6628 35.1004 19.9451 35.3045 20.285" stroke="#31944D" stroke-linecap="round" stroke-linejoin="round"/>
<path d="M20.0133 18.433C19.7933 18.756 19.6651 19.1486 19.6651 19.5705V21.589C19.6651 22.7072 20.5654 23.6075 21.6837 23.6075M37.8317 23.6075C38.95 23.6075 39.8502 22.7072 39.8502 21.589V19.5705C39.85 19.3002 39.7961 19.0326 39.6918 18.7832C39.591 18.5437 39.4447 18.326 39.2608 18.1423" stroke="#31944D"/>
<path d="M34.804 30.1048V34.709M24.7114 34.709V30.1038" stroke="#31944D" stroke-linecap="round" stroke-linejoin="round"/>
<path d="M37.8317 20.5797V23.6074C37.8317 28.0804 34.2307 31.6814 29.7577 31.6814C25.2846 31.6814 21.6836 28.0804 21.6836 23.6074V20.5797" stroke="#31944D"/>
<path d="M31.432 40.3689L33.29 54.0453L29.7576 58.9311L26.2252 54.0453L28.0822 40.372" stroke="#31944D" stroke-linecap="round" stroke-linejoin="round"/>
<path d="M14.6189 50.9075H15.6282V61H14.6189V50.9075ZM43.8873 50.9075H44.8965V61H43.8873V50.9075Z" fill="#31944D"/>
<path d="M27.2345 39.4749L29.7576 36.8287L32.2808 39.4749L31.436 40.3611H28.0762L27.2345 39.4749Z" fill="#ABDBB0"/>
<path d="M27.2345 39.4749L29.7576 36.8287L32.2808 39.4749L31.436 40.3611H28.0762L27.2345 39.4749Z" stroke="#31944D" stroke-linecap="round" stroke-linejoin="round"/>
<path d="M24.7114 34.7091L29.7576 36.9476L25.7206 40.8656L21.7361 36.2482M34.8039 34.7091L29.7576 36.9476L33.7947 40.8656L37.7641 36.2653M29.7576 22.2024V24.2189M24.2108 20.2859C24.4149 19.946 24.7085 19.6637 25.0621 19.4674C25.4157 19.2711 25.8169 19.1677 26.2253 19.1676C26.6336 19.1677 27.0348 19.2711 27.3884 19.4674C27.742 19.6637 28.0356 19.946 28.2397 20.2859M31.2756 20.2859C31.4797 19.946 31.7733 19.6637 32.1269 19.4674C32.4805 19.2711 32.8817 19.1677 33.29 19.1676C33.6984 19.1677 34.0996 19.2711 34.4532 19.4674C34.8068 19.6637 35.1004 19.946 35.3045 20.2859M32.2152 27.2356C31.5624 27.8802 30.6846 28.2455 29.7672 28.2544C28.8499 28.2632 27.9652 27.9149 27.3001 27.283" stroke="#31944D" stroke-linecap="round" stroke-linejoin="round"/>
<path d="M29.7577 5.54156C27.081 5.54156 24.5139 6.60491 22.6212 8.49762C20.7285 10.3903 19.6651 12.9574 19.6651 15.6341C19.6686 17.8123 20.3767 19.9309 21.6837 21.6735V17.5325C24.9986 18.1481 28.4227 17.4405 31.2221 15.5614C32.2338 14.8773 33.1431 14.0529 33.9229 13.113C34.8534 14.4079 36.2588 15.2816 37.8317 15.5432V21.6694C39.1378 19.928 39.8459 17.8109 39.8502 15.6341C39.8502 12.9574 38.7869 10.3903 36.8942 8.49762C35.0015 6.60491 32.4344 5.54156 29.7577 5.54156Z" fill="#ABDBB0"/>
<path d="M29.7577 5.54156C27.081 5.54156 24.5139 6.60491 22.6212 8.49762C20.7285 10.3903 19.6651 12.9574 19.6651 15.6341C19.6686 17.8123 20.3767 19.9309 21.6837 21.6735V17.5325C24.9986 18.1481 28.4227 17.4405 31.2221 15.5614C32.2338 14.8773 33.1431 14.0529 33.9229 13.113C34.8534 14.4079 36.2588 15.2816 37.8317 15.5432V21.6694C39.1378 19.928 39.8459 17.8109 39.8502 15.6341C39.8502 12.9574 38.7869 10.3903 36.8942 8.49762C35.0015 6.60491 32.4344 5.54156 29.7577 5.54156V5.54156Z" stroke="#31944D" stroke-linecap="round" stroke-linejoin="round"/>
<path d="M13.6903 27.6646L15.1184 26.2365M13.6913 26.2365L15.1184 27.6646M4.02163 17.1481V15.1296M3.01237 16.1389H5.03088" stroke="#31944D" stroke-linecap="round" stroke-linejoin="round"/>
<path d="M11.0865 3.01851C11.6439 3.01851 12.0957 2.56665 12.0957 2.00925C12.0957 1.45186 11.6439 1 11.0865 1C10.5291 1 10.0772 1.45186 10.0772 2.00925C10.0772 2.56665 10.5291 3.01851 11.0865 3.01851Z" stroke="#31944D" stroke-linecap="round" stroke-linejoin="round"/>
<path d="M58.5143 42.1454L56.5644 42.6681M57.278 41.4328L57.8008 43.3817M43.756 2.38582L42.0079 1.37657M43.3866 1.00616L42.3773 2.75419" stroke="#31944D" stroke-linecap="round" stroke-linejoin="round"/>
<path d="M44.0885 30.8097C43.8098 31.2924 43.1926 31.4578 42.7099 31.1791C42.2272 30.9004 42.0618 30.2831 42.3405 29.8004C42.6192 29.3177 43.2364 29.1523 43.7191 29.431C44.2019 29.7097 44.3672 30.327 44.0885 30.8097Z" stroke="#31944D" stroke-linecap="round" stroke-linejoin="round"/>
<path d="M52.7253 19.9033L53.2299 19.0293M54.2422 17.2752L54.7468 16.4001M51.9845 17.1409L52.8585 17.6456M54.6136 18.6589L55.4876 19.1635M1.74079 41.364L2.24542 40.49M3.2577 38.7359L3.76233 37.8619M1 38.6018L1.87401 39.1064M3.62911 40.1197L4.50312 40.6243" stroke="#31944D" stroke-linecap="round" stroke-linejoin="round"/>
</svg>
